M48
INCH
T1C0.0157
T2C0.0320
T3C0.0500
%
G90
G05
T1
X2.263Y-3.1298
X5.2892Y-2.1115
X5.4622Y-2.0569
X5.686Y-3.288
T2
X5.1611Y-2.0754
X5.1611Y-2.1754
X5.1611Y-2.2754
X5.1611Y-2.3754
X5.1611Y-2.4754
X5.1611Y-2.5754
X5.1611Y-2.6754
X5.1611Y-2.7754
X5.1611Y-2.8754
X5.1611Y-2.9754
X5.1611Y-3.0754
X5.1611Y-3.1754
X5.2056Y-1.9856
X5.6656Y-1.9856
X5.7603Y-2.0754
X5.7603Y-2.1754
X5.7603Y-2.2754
X5.7603Y-2.3754
X5.7603Y-2.4754
X5.7603Y-2.5754
X5.7603Y-2.6754
X5.7603Y-2.7754
X5.7603Y-2.8754
X5.7603Y-2.9754
X5.7603Y-3.0754
X5.7603Y-3.1754
T3
X0.9709Y-2.7526
X1.1677Y-2.8353
X1.3646Y-2.7526
X1.6849Y-2.0794
X1.6849Y-2.7487
X1.6849Y-3.418
X1.8817Y-2.1621
X1.8817Y-2.8314
X1.8817Y-3.5007
X2.0786Y-2.0794
X2.0786Y-2.7487
X2.0786Y-3.418
X2.3935Y-1.607
X2.3935Y-2.2752
X2.3935Y-2.9452
X2.5904Y-1.6897
X2.5904Y-2.3579
X2.5904Y-3.0279
X2.7872Y-1.607
X2.7872Y-2.2752
X2.7872Y-2.9452
X3.1022Y-1.3314
X3.1022Y-2.0052
X3.1022Y-2.6752
X3.299Y-1.4141
X3.299Y-2.0879
X3.299Y-2.7579
X3.4959Y-1.3314
X3.4959Y-2.0052
X3.4959Y-2.6752
X3.8108Y-1.5479
X3.8108Y-2.2152
X3.8108Y-2.8852
X4.0077Y-1.6306
X4.0077Y-2.2979
X4.0077Y-2.9679
X4.2045Y-1.5479
X4.2045Y-2.2152
X4.2045Y-2.8852
X4.5187Y-2.3152
X4.5187Y-2.9852
X4.5195Y-1.6463
X4.5939Y-3.6221
X4.7156Y-2.3979
X4.7156Y-3.0679
X4.7164Y-1.729
X4.8054Y-3.5932
X4.9124Y-2.3152
X4.9124Y-2.9852
X4.9132Y-1.6463
X4.9742Y-3.724
X5.2555Y-4.2062
X5.2823Y-3.9943
X5.4523Y-3.8652
T0
M30
