%TF.GenerationSoftware,KiCad,Pcbnew,(6.0.2-0)*%
%TF.CreationDate,2022-04-02T00:45:19-05:00*%
%TF.ProjectId,Exkeylibur,45786b65-796c-4696-9275-722e6b696361,rev?*%
%TF.SameCoordinates,Original*%
%TF.FileFunction,Legend,Bot*%
%TF.FilePolarity,Positive*%
%FSLAX46Y46*%
G04 Gerber Fmt 4.6, Leading zero omitted, Abs format (unit mm)*
G04 Created by KiCad (PCBNEW (6.0.2-0)) date 2022-04-02 00:45:19*
%MOMM*%
%LPD*%
G01*
G04 APERTURE LIST*
%ADD10C,0.125000*%
%ADD11C,0.150000*%
%ADD12C,0.120000*%
%ADD13C,1.524000*%
G04 APERTURE END LIST*
D10*
%TO.C,U1*%
X133406396Y-53013285D02*
X133573062Y-52656142D01*
X133692110Y-53013285D02*
X133692110Y-52263285D01*
X133501634Y-52263285D01*
X133454015Y-52299000D01*
X133430205Y-52334714D01*
X133406396Y-52406142D01*
X133406396Y-52513285D01*
X133430205Y-52584714D01*
X133454015Y-52620428D01*
X133501634Y-52656142D01*
X133692110Y-52656142D01*
X133215919Y-52799000D02*
X132977824Y-52799000D01*
X133263538Y-53013285D02*
X133096872Y-52263285D01*
X132930205Y-53013285D01*
X132811158Y-52263285D02*
X132692110Y-53013285D01*
X132596872Y-52477571D01*
X132501634Y-53013285D01*
X132382586Y-52263285D01*
X133312110Y-54939000D02*
X133359729Y-54903285D01*
X133431158Y-54903285D01*
X133502586Y-54939000D01*
X133550205Y-55010428D01*
X133574015Y-55081857D01*
X133597824Y-55224714D01*
X133597824Y-55331857D01*
X133574015Y-55474714D01*
X133550205Y-55546142D01*
X133502586Y-55617571D01*
X133431158Y-55653285D01*
X133383538Y-55653285D01*
X133312110Y-55617571D01*
X133288300Y-55581857D01*
X133288300Y-55331857D01*
X133383538Y-55331857D01*
X133074015Y-55653285D02*
X133074015Y-54903285D01*
X132788300Y-55653285D01*
X132788300Y-54903285D01*
X132550205Y-55653285D02*
X132550205Y-54903285D01*
X132431158Y-54903285D01*
X132359729Y-54939000D01*
X132312110Y-55010428D01*
X132288300Y-55081857D01*
X132264491Y-55224714D01*
X132264491Y-55331857D01*
X132288300Y-55474714D01*
X132312110Y-55546142D01*
X132359729Y-55617571D01*
X132431158Y-55653285D01*
X132550205Y-55653285D01*
D11*
D10*
X144962110Y-57469000D02*
X145009729Y-57433285D01*
X145081158Y-57433285D01*
X145152586Y-57469000D01*
X145200205Y-57540428D01*
X145224015Y-57611857D01*
X145247824Y-57754714D01*
X145247824Y-57861857D01*
X145224015Y-58004714D01*
X145200205Y-58076142D01*
X145152586Y-58147571D01*
X145081158Y-58183285D01*
X145033538Y-58183285D01*
X144962110Y-58147571D01*
X144938300Y-58111857D01*
X144938300Y-57861857D01*
X145033538Y-57861857D01*
X144724015Y-58183285D02*
X144724015Y-57433285D01*
X144438300Y-58183285D01*
X144438300Y-57433285D01*
X144200205Y-58183285D02*
X144200205Y-57433285D01*
X144081158Y-57433285D01*
X144009729Y-57469000D01*
X143962110Y-57540428D01*
X143938300Y-57611857D01*
X143914491Y-57754714D01*
X143914491Y-57861857D01*
X143938300Y-58004714D01*
X143962110Y-58076142D01*
X144009729Y-58147571D01*
X144081158Y-58183285D01*
X144200205Y-58183285D01*
X144942110Y-60049000D02*
X144989729Y-60013285D01*
X145061158Y-60013285D01*
X145132586Y-60049000D01*
X145180205Y-60120428D01*
X145204015Y-60191857D01*
X145227824Y-60334714D01*
X145227824Y-60441857D01*
X145204015Y-60584714D01*
X145180205Y-60656142D01*
X145132586Y-60727571D01*
X145061158Y-60763285D01*
X145013538Y-60763285D01*
X144942110Y-60727571D01*
X144918300Y-60691857D01*
X144918300Y-60441857D01*
X145013538Y-60441857D01*
X144704015Y-60763285D02*
X144704015Y-60013285D01*
X144418300Y-60763285D01*
X144418300Y-60013285D01*
X144180205Y-60763285D02*
X144180205Y-60013285D01*
X144061158Y-60013285D01*
X143989729Y-60049000D01*
X143942110Y-60120428D01*
X143918300Y-60191857D01*
X143894491Y-60334714D01*
X143894491Y-60441857D01*
X143918300Y-60584714D01*
X143942110Y-60656142D01*
X143989729Y-60727571D01*
X144061158Y-60763285D01*
X144180205Y-60763285D01*
D11*
%TO.C,SW16*%
X80845058Y-58755973D02*
X80702201Y-58803592D01*
X80464106Y-58803592D01*
X80368868Y-58755973D01*
X80321249Y-58708354D01*
X80273630Y-58613116D01*
X80273630Y-58517878D01*
X80321249Y-58422640D01*
X80368868Y-58375021D01*
X80464106Y-58327402D01*
X80654582Y-58279783D01*
X80749820Y-58232164D01*
X80797439Y-58184545D01*
X80845058Y-58089307D01*
X80845058Y-57994069D01*
X80797439Y-57898831D01*
X80749820Y-57851212D01*
X80654582Y-57803592D01*
X80416487Y-57803592D01*
X80273630Y-57851212D01*
X79940296Y-57803592D02*
X79702201Y-58803592D01*
X79511725Y-58089307D01*
X79321249Y-58803592D01*
X79083154Y-57803592D01*
X78178392Y-58803592D02*
X78749820Y-58803592D01*
X78464106Y-58803592D02*
X78464106Y-57803592D01*
X78559344Y-57946450D01*
X78654582Y-58041688D01*
X78749820Y-58089307D01*
X77321249Y-57803592D02*
X77511725Y-57803592D01*
X77606963Y-57851212D01*
X77654582Y-57898831D01*
X77749820Y-58041688D01*
X77797439Y-58232164D01*
X77797439Y-58613116D01*
X77749820Y-58708354D01*
X77702201Y-58755973D01*
X77606963Y-58803592D01*
X77416487Y-58803592D01*
X77321249Y-58755973D01*
X77273630Y-58708354D01*
X77226011Y-58613116D01*
X77226011Y-58375021D01*
X77273630Y-58279783D01*
X77321249Y-58232164D01*
X77416487Y-58184545D01*
X77606963Y-58184545D01*
X77702201Y-58232164D01*
X77749820Y-58279783D01*
X77797439Y-58375021D01*
%TO.C,SW7*%
X122443939Y-103064710D02*
X122594254Y-103055688D01*
X122824236Y-103117312D01*
X122903904Y-103187958D01*
X122937576Y-103246279D01*
X122958923Y-103350596D01*
X122934274Y-103442589D01*
X122863628Y-103522258D01*
X122805306Y-103555929D01*
X122700989Y-103577276D01*
X122504678Y-103573974D01*
X122400361Y-103595321D01*
X122342039Y-103628993D01*
X122271393Y-103708661D01*
X122246744Y-103800654D01*
X122268091Y-103904972D01*
X122301763Y-103963293D01*
X122381431Y-104033939D01*
X122611413Y-104095562D01*
X122761727Y-104086540D01*
X123071378Y-104218809D02*
X123560179Y-103314507D01*
X123559295Y-104053753D01*
X123928151Y-103413105D01*
X123899314Y-104440654D01*
X124175293Y-104514603D02*
X124819244Y-104687149D01*
X124664095Y-103610300D01*
%TO.C,SW15*%
X62845058Y-65613973D02*
X62702201Y-65661592D01*
X62464106Y-65661592D01*
X62368868Y-65613973D01*
X62321249Y-65566354D01*
X62273630Y-65471116D01*
X62273630Y-65375878D01*
X62321249Y-65280640D01*
X62368868Y-65233021D01*
X62464106Y-65185402D01*
X62654582Y-65137783D01*
X62749820Y-65090164D01*
X62797439Y-65042545D01*
X62845058Y-64947307D01*
X62845058Y-64852069D01*
X62797439Y-64756831D01*
X62749820Y-64709212D01*
X62654582Y-64661592D01*
X62416487Y-64661592D01*
X62273630Y-64709212D01*
X61940296Y-64661592D02*
X61702201Y-65661592D01*
X61511725Y-64947307D01*
X61321249Y-65661592D01*
X61083154Y-64661592D01*
X60178392Y-65661592D02*
X60749820Y-65661592D01*
X60464106Y-65661592D02*
X60464106Y-64661592D01*
X60559344Y-64804450D01*
X60654582Y-64899688D01*
X60749820Y-64947307D01*
X59273630Y-64661592D02*
X59749820Y-64661592D01*
X59797439Y-65137783D01*
X59749820Y-65090164D01*
X59654582Y-65042545D01*
X59416487Y-65042545D01*
X59321249Y-65090164D01*
X59273630Y-65137783D01*
X59226011Y-65233021D01*
X59226011Y-65471116D01*
X59273630Y-65566354D01*
X59321249Y-65613973D01*
X59416487Y-65661592D01*
X59654582Y-65661592D01*
X59749820Y-65613973D01*
X59797439Y-65566354D01*
%TO.C,SW13*%
X26709948Y-60721186D02*
X26567091Y-60768805D01*
X26328996Y-60768805D01*
X26233758Y-60721186D01*
X26186139Y-60673567D01*
X26138520Y-60578329D01*
X26138520Y-60483091D01*
X26186139Y-60387853D01*
X26233758Y-60340234D01*
X26328996Y-60292615D01*
X26519472Y-60244996D01*
X26614710Y-60197377D01*
X26662329Y-60149758D01*
X26709948Y-60054520D01*
X26709948Y-59959282D01*
X26662329Y-59864044D01*
X26614710Y-59816425D01*
X26519472Y-59768805D01*
X26281377Y-59768805D01*
X26138520Y-59816425D01*
X25805186Y-59768805D02*
X25567091Y-60768805D01*
X25376615Y-60054520D01*
X25186139Y-60768805D01*
X24948044Y-59768805D01*
X24043282Y-60768805D02*
X24614710Y-60768805D01*
X24328996Y-60768805D02*
X24328996Y-59768805D01*
X24424234Y-59911663D01*
X24519472Y-60006901D01*
X24614710Y-60054520D01*
X23709948Y-59768805D02*
X23090901Y-59768805D01*
X23424234Y-60149758D01*
X23281377Y-60149758D01*
X23186139Y-60197377D01*
X23138520Y-60244996D01*
X23090901Y-60340234D01*
X23090901Y-60578329D01*
X23138520Y-60673567D01*
X23186139Y-60721186D01*
X23281377Y-60768805D01*
X23567091Y-60768805D01*
X23662329Y-60721186D01*
X23709948Y-60673567D01*
%TO.C,SW17*%
X98845058Y-64089973D02*
X98702201Y-64137592D01*
X98464106Y-64137592D01*
X98368868Y-64089973D01*
X98321249Y-64042354D01*
X98273630Y-63947116D01*
X98273630Y-63851878D01*
X98321249Y-63756640D01*
X98368868Y-63709021D01*
X98464106Y-63661402D01*
X98654582Y-63613783D01*
X98749820Y-63566164D01*
X98797439Y-63518545D01*
X98845058Y-63423307D01*
X98845058Y-63328069D01*
X98797439Y-63232831D01*
X98749820Y-63185212D01*
X98654582Y-63137592D01*
X98416487Y-63137592D01*
X98273630Y-63185212D01*
X97940296Y-63137592D02*
X97702201Y-64137592D01*
X97511725Y-63423307D01*
X97321249Y-64137592D01*
X97083154Y-63137592D01*
X96178392Y-64137592D02*
X96749820Y-64137592D01*
X96464106Y-64137592D02*
X96464106Y-63137592D01*
X96559344Y-63280450D01*
X96654582Y-63375688D01*
X96749820Y-63423307D01*
X95845058Y-63137592D02*
X95178392Y-63137592D01*
X95606963Y-64137592D01*
%TO.C,SW18*%
X116825058Y-66629973D02*
X116682201Y-66677592D01*
X116444106Y-66677592D01*
X116348868Y-66629973D01*
X116301249Y-66582354D01*
X116253630Y-66487116D01*
X116253630Y-66391878D01*
X116301249Y-66296640D01*
X116348868Y-66249021D01*
X116444106Y-66201402D01*
X116634582Y-66153783D01*
X116729820Y-66106164D01*
X116777439Y-66058545D01*
X116825058Y-65963307D01*
X116825058Y-65868069D01*
X116777439Y-65772831D01*
X116729820Y-65725212D01*
X116634582Y-65677592D01*
X116396487Y-65677592D01*
X116253630Y-65725212D01*
X115920296Y-65677592D02*
X115682201Y-66677592D01*
X115491725Y-65963307D01*
X115301249Y-66677592D01*
X115063154Y-65677592D01*
X114158392Y-66677592D02*
X114729820Y-66677592D01*
X114444106Y-66677592D02*
X114444106Y-65677592D01*
X114539344Y-65820450D01*
X114634582Y-65915688D01*
X114729820Y-65963307D01*
X113586963Y-66106164D02*
X113682201Y-66058545D01*
X113729820Y-66010926D01*
X113777439Y-65915688D01*
X113777439Y-65868069D01*
X113729820Y-65772831D01*
X113682201Y-65725212D01*
X113586963Y-65677592D01*
X113396487Y-65677592D01*
X113301249Y-65725212D01*
X113253630Y-65772831D01*
X113206011Y-65868069D01*
X113206011Y-65915688D01*
X113253630Y-66010926D01*
X113301249Y-66058545D01*
X113396487Y-66106164D01*
X113586963Y-66106164D01*
X113682201Y-66153783D01*
X113729820Y-66201402D01*
X113777439Y-66296640D01*
X113777439Y-66487116D01*
X113729820Y-66582354D01*
X113682201Y-66629973D01*
X113586963Y-66677592D01*
X113396487Y-66677592D01*
X113301249Y-66629973D01*
X113253630Y-66582354D01*
X113206011Y-66487116D01*
X113206011Y-66296640D01*
X113253630Y-66201402D01*
X113301249Y-66153783D01*
X113396487Y-66106164D01*
%TO.C,SW4*%
X80368868Y-24621973D02*
X80226011Y-24669592D01*
X79987915Y-24669592D01*
X79892677Y-24621973D01*
X79845058Y-24574354D01*
X79797439Y-24479116D01*
X79797439Y-24383878D01*
X79845058Y-24288640D01*
X79892677Y-24241021D01*
X79987915Y-24193402D01*
X80178392Y-24145783D01*
X80273630Y-24098164D01*
X80321249Y-24050545D01*
X80368868Y-23955307D01*
X80368868Y-23860069D01*
X80321249Y-23764831D01*
X80273630Y-23717212D01*
X80178392Y-23669592D01*
X79940296Y-23669592D01*
X79797439Y-23717212D01*
X79464106Y-23669592D02*
X79226011Y-24669592D01*
X79035535Y-23955307D01*
X78845058Y-24669592D01*
X78606963Y-23669592D01*
X77797439Y-24002926D02*
X77797439Y-24669592D01*
X78035535Y-23621973D02*
X78273630Y-24336259D01*
X77654582Y-24336259D01*
%TO.C,SW3*%
X62368868Y-31621973D02*
X62226011Y-31669592D01*
X61987915Y-31669592D01*
X61892677Y-31621973D01*
X61845058Y-31574354D01*
X61797439Y-31479116D01*
X61797439Y-31383878D01*
X61845058Y-31288640D01*
X61892677Y-31241021D01*
X61987915Y-31193402D01*
X62178392Y-31145783D01*
X62273630Y-31098164D01*
X62321249Y-31050545D01*
X62368868Y-30955307D01*
X62368868Y-30860069D01*
X62321249Y-30764831D01*
X62273630Y-30717212D01*
X62178392Y-30669592D01*
X61940296Y-30669592D01*
X61797439Y-30717212D01*
X61464106Y-30669592D02*
X61226011Y-31669592D01*
X61035535Y-30955307D01*
X60845058Y-31669592D01*
X60606963Y-30669592D01*
X60321249Y-30669592D02*
X59702201Y-30669592D01*
X60035535Y-31050545D01*
X59892677Y-31050545D01*
X59797439Y-31098164D01*
X59749820Y-31145783D01*
X59702201Y-31241021D01*
X59702201Y-31479116D01*
X59749820Y-31574354D01*
X59797439Y-31621973D01*
X59892677Y-31669592D01*
X60178392Y-31669592D01*
X60273630Y-31621973D01*
X60321249Y-31574354D01*
%TO.C,SW9*%
X62368868Y-48595973D02*
X62226011Y-48643592D01*
X61987915Y-48643592D01*
X61892677Y-48595973D01*
X61845058Y-48548354D01*
X61797439Y-48453116D01*
X61797439Y-48357878D01*
X61845058Y-48262640D01*
X61892677Y-48215021D01*
X61987915Y-48167402D01*
X62178392Y-48119783D01*
X62273630Y-48072164D01*
X62321249Y-48024545D01*
X62368868Y-47929307D01*
X62368868Y-47834069D01*
X62321249Y-47738831D01*
X62273630Y-47691212D01*
X62178392Y-47643592D01*
X61940296Y-47643592D01*
X61797439Y-47691212D01*
X61464106Y-47643592D02*
X61226011Y-48643592D01*
X61035535Y-47929307D01*
X60845058Y-48643592D01*
X60606963Y-47643592D01*
X60178392Y-48643592D02*
X59987915Y-48643592D01*
X59892677Y-48595973D01*
X59845058Y-48548354D01*
X59749820Y-48405497D01*
X59702201Y-48215021D01*
X59702201Y-47834069D01*
X59749820Y-47738831D01*
X59797439Y-47691212D01*
X59892677Y-47643592D01*
X60083154Y-47643592D01*
X60178392Y-47691212D01*
X60226011Y-47738831D01*
X60273630Y-47834069D01*
X60273630Y-48072164D01*
X60226011Y-48167402D01*
X60178392Y-48215021D01*
X60083154Y-48262640D01*
X59892677Y-48262640D01*
X59797439Y-48215021D01*
X59749820Y-48167402D01*
X59702201Y-48072164D01*
%TO.C,SW14*%
X44845058Y-77621973D02*
X44702201Y-77669592D01*
X44464106Y-77669592D01*
X44368868Y-77621973D01*
X44321249Y-77574354D01*
X44273630Y-77479116D01*
X44273630Y-77383878D01*
X44321249Y-77288640D01*
X44368868Y-77241021D01*
X44464106Y-77193402D01*
X44654582Y-77145783D01*
X44749820Y-77098164D01*
X44797439Y-77050545D01*
X44845058Y-76955307D01*
X44845058Y-76860069D01*
X44797439Y-76764831D01*
X44749820Y-76717212D01*
X44654582Y-76669592D01*
X44416487Y-76669592D01*
X44273630Y-76717212D01*
X43940296Y-76669592D02*
X43702201Y-77669592D01*
X43511725Y-76955307D01*
X43321249Y-77669592D01*
X43083154Y-76669592D01*
X42178392Y-77669592D02*
X42749820Y-77669592D01*
X42464106Y-77669592D02*
X42464106Y-76669592D01*
X42559344Y-76812450D01*
X42654582Y-76907688D01*
X42749820Y-76955307D01*
X41321249Y-77002926D02*
X41321249Y-77669592D01*
X41559344Y-76621973D02*
X41797439Y-77336259D01*
X41178392Y-77336259D01*
%TO.C,SW12*%
X116825058Y-49611973D02*
X116682201Y-49659592D01*
X116444106Y-49659592D01*
X116348868Y-49611973D01*
X116301249Y-49564354D01*
X116253630Y-49469116D01*
X116253630Y-49373878D01*
X116301249Y-49278640D01*
X116348868Y-49231021D01*
X116444106Y-49183402D01*
X116634582Y-49135783D01*
X116729820Y-49088164D01*
X116777439Y-49040545D01*
X116825058Y-48945307D01*
X116825058Y-48850069D01*
X116777439Y-48754831D01*
X116729820Y-48707212D01*
X116634582Y-48659592D01*
X116396487Y-48659592D01*
X116253630Y-48707212D01*
X115920296Y-48659592D02*
X115682201Y-49659592D01*
X115491725Y-48945307D01*
X115301249Y-49659592D01*
X115063154Y-48659592D01*
X114158392Y-49659592D02*
X114729820Y-49659592D01*
X114444106Y-49659592D02*
X114444106Y-48659592D01*
X114539344Y-48802450D01*
X114634582Y-48897688D01*
X114729820Y-48945307D01*
X113777439Y-48754831D02*
X113729820Y-48707212D01*
X113634582Y-48659592D01*
X113396487Y-48659592D01*
X113301249Y-48707212D01*
X113253630Y-48754831D01*
X113206011Y-48850069D01*
X113206011Y-48945307D01*
X113253630Y-49088164D01*
X113825058Y-49659592D01*
X113206011Y-49659592D01*
%TO.C,SW11*%
X98845058Y-47071973D02*
X98702201Y-47119592D01*
X98464106Y-47119592D01*
X98368868Y-47071973D01*
X98321249Y-47024354D01*
X98273630Y-46929116D01*
X98273630Y-46833878D01*
X98321249Y-46738640D01*
X98368868Y-46691021D01*
X98464106Y-46643402D01*
X98654582Y-46595783D01*
X98749820Y-46548164D01*
X98797439Y-46500545D01*
X98845058Y-46405307D01*
X98845058Y-46310069D01*
X98797439Y-46214831D01*
X98749820Y-46167212D01*
X98654582Y-46119592D01*
X98416487Y-46119592D01*
X98273630Y-46167212D01*
X97940296Y-46119592D02*
X97702201Y-47119592D01*
X97511725Y-46405307D01*
X97321249Y-47119592D01*
X97083154Y-46119592D01*
X96178392Y-47119592D02*
X96749820Y-47119592D01*
X96464106Y-47119592D02*
X96464106Y-46119592D01*
X96559344Y-46262450D01*
X96654582Y-46357688D01*
X96749820Y-46405307D01*
X95226011Y-47119592D02*
X95797439Y-47119592D01*
X95511725Y-47119592D02*
X95511725Y-46119592D01*
X95606963Y-46262450D01*
X95702201Y-46357688D01*
X95797439Y-46405307D01*
%TO.C,SW8*%
X44368868Y-60621973D02*
X44226011Y-60669592D01*
X43987915Y-60669592D01*
X43892677Y-60621973D01*
X43845058Y-60574354D01*
X43797439Y-60479116D01*
X43797439Y-60383878D01*
X43845058Y-60288640D01*
X43892677Y-60241021D01*
X43987915Y-60193402D01*
X44178392Y-60145783D01*
X44273630Y-60098164D01*
X44321249Y-60050545D01*
X44368868Y-59955307D01*
X44368868Y-59860069D01*
X44321249Y-59764831D01*
X44273630Y-59717212D01*
X44178392Y-59669592D01*
X43940296Y-59669592D01*
X43797439Y-59717212D01*
X43464106Y-59669592D02*
X43226011Y-60669592D01*
X43035535Y-59955307D01*
X42845058Y-60669592D01*
X42606963Y-59669592D01*
X42083154Y-60098164D02*
X42178392Y-60050545D01*
X42226011Y-60002926D01*
X42273630Y-59907688D01*
X42273630Y-59860069D01*
X42226011Y-59764831D01*
X42178392Y-59717212D01*
X42083154Y-59669592D01*
X41892677Y-59669592D01*
X41797439Y-59717212D01*
X41749820Y-59764831D01*
X41702201Y-59860069D01*
X41702201Y-59907688D01*
X41749820Y-60002926D01*
X41797439Y-60050545D01*
X41892677Y-60098164D01*
X42083154Y-60098164D01*
X42178392Y-60145783D01*
X42226011Y-60193402D01*
X42273630Y-60288640D01*
X42273630Y-60479116D01*
X42226011Y-60574354D01*
X42178392Y-60621973D01*
X42083154Y-60669592D01*
X41892677Y-60669592D01*
X41797439Y-60621973D01*
X41749820Y-60574354D01*
X41702201Y-60479116D01*
X41702201Y-60288640D01*
X41749820Y-60193402D01*
X41797439Y-60145783D01*
X41892677Y-60098164D01*
%TO.C,SW6*%
X116368868Y-32621973D02*
X116226011Y-32669592D01*
X115987915Y-32669592D01*
X115892677Y-32621973D01*
X115845058Y-32574354D01*
X115797439Y-32479116D01*
X115797439Y-32383878D01*
X115845058Y-32288640D01*
X115892677Y-32241021D01*
X115987915Y-32193402D01*
X116178392Y-32145783D01*
X116273630Y-32098164D01*
X116321249Y-32050545D01*
X116368868Y-31955307D01*
X116368868Y-31860069D01*
X116321249Y-31764831D01*
X116273630Y-31717212D01*
X116178392Y-31669592D01*
X115940296Y-31669592D01*
X115797439Y-31717212D01*
X115464106Y-31669592D02*
X115226011Y-32669592D01*
X115035535Y-31955307D01*
X114845058Y-32669592D01*
X114606963Y-31669592D01*
X113797439Y-31669592D02*
X113987915Y-31669592D01*
X114083154Y-31717212D01*
X114130773Y-31764831D01*
X114226011Y-31907688D01*
X114273630Y-32098164D01*
X114273630Y-32479116D01*
X114226011Y-32574354D01*
X114178392Y-32621973D01*
X114083154Y-32669592D01*
X113892677Y-32669592D01*
X113797439Y-32621973D01*
X113749820Y-32574354D01*
X113702201Y-32479116D01*
X113702201Y-32241021D01*
X113749820Y-32145783D01*
X113797439Y-32098164D01*
X113892677Y-32050545D01*
X114083154Y-32050545D01*
X114178392Y-32098164D01*
X114226011Y-32145783D01*
X114273630Y-32241021D01*
%TO.C,SW5*%
X98368868Y-30121973D02*
X98226011Y-30169592D01*
X97987915Y-30169592D01*
X97892677Y-30121973D01*
X97845058Y-30074354D01*
X97797439Y-29979116D01*
X97797439Y-29883878D01*
X97845058Y-29788640D01*
X97892677Y-29741021D01*
X97987915Y-29693402D01*
X98178392Y-29645783D01*
X98273630Y-29598164D01*
X98321249Y-29550545D01*
X98368868Y-29455307D01*
X98368868Y-29360069D01*
X98321249Y-29264831D01*
X98273630Y-29217212D01*
X98178392Y-29169592D01*
X97940296Y-29169592D01*
X97797439Y-29217212D01*
X97464106Y-29169592D02*
X97226011Y-30169592D01*
X97035535Y-29455307D01*
X96845058Y-30169592D01*
X96606963Y-29169592D01*
X95749820Y-29169592D02*
X96226011Y-29169592D01*
X96273630Y-29645783D01*
X96226011Y-29598164D01*
X96130773Y-29550545D01*
X95892677Y-29550545D01*
X95797439Y-29598164D01*
X95749820Y-29645783D01*
X95702201Y-29741021D01*
X95702201Y-29979116D01*
X95749820Y-30074354D01*
X95797439Y-30121973D01*
X95892677Y-30169592D01*
X96130773Y-30169592D01*
X96226011Y-30121973D01*
X96273630Y-30074354D01*
%TO.C,SW2*%
X44368868Y-43621973D02*
X44226011Y-43669592D01*
X43987915Y-43669592D01*
X43892677Y-43621973D01*
X43845058Y-43574354D01*
X43797439Y-43479116D01*
X43797439Y-43383878D01*
X43845058Y-43288640D01*
X43892677Y-43241021D01*
X43987915Y-43193402D01*
X44178392Y-43145783D01*
X44273630Y-43098164D01*
X44321249Y-43050545D01*
X44368868Y-42955307D01*
X44368868Y-42860069D01*
X44321249Y-42764831D01*
X44273630Y-42717212D01*
X44178392Y-42669592D01*
X43940296Y-42669592D01*
X43797439Y-42717212D01*
X43464106Y-42669592D02*
X43226011Y-43669592D01*
X43035535Y-42955307D01*
X42845058Y-43669592D01*
X42606963Y-42669592D01*
X42273630Y-42764831D02*
X42226011Y-42717212D01*
X42130773Y-42669592D01*
X41892677Y-42669592D01*
X41797439Y-42717212D01*
X41749820Y-42764831D01*
X41702201Y-42860069D01*
X41702201Y-42955307D01*
X41749820Y-43098164D01*
X42321249Y-43669592D01*
X41702201Y-43669592D01*
%TO.C,RSW1*%
X146031230Y-85293777D02*
X145555040Y-84960443D01*
X146031230Y-84722348D02*
X145031230Y-84722348D01*
X145031230Y-85103300D01*
X145078850Y-85198538D01*
X145126469Y-85246158D01*
X145221707Y-85293777D01*
X145364564Y-85293777D01*
X145459802Y-85246158D01*
X145507421Y-85198538D01*
X145555040Y-85103300D01*
X145555040Y-84722348D01*
X145507421Y-85722348D02*
X145507421Y-86055681D01*
X146031230Y-86198538D02*
X146031230Y-85722348D01*
X145031230Y-85722348D01*
X145031230Y-86198538D01*
X145983611Y-86579491D02*
X146031230Y-86722348D01*
X146031230Y-86960443D01*
X145983611Y-87055681D01*
X145935992Y-87103300D01*
X145840754Y-87150919D01*
X145745516Y-87150919D01*
X145650278Y-87103300D01*
X145602659Y-87055681D01*
X145555040Y-86960443D01*
X145507421Y-86769967D01*
X145459802Y-86674729D01*
X145412183Y-86627110D01*
X145316945Y-86579491D01*
X145221707Y-86579491D01*
X145126469Y-86627110D01*
X145078850Y-86674729D01*
X145031230Y-86769967D01*
X145031230Y-87008062D01*
X145078850Y-87150919D01*
X145507421Y-87579491D02*
X145507421Y-87912824D01*
X146031230Y-88055681D02*
X146031230Y-87579491D01*
X145031230Y-87579491D01*
X145031230Y-88055681D01*
X145031230Y-88341396D02*
X145031230Y-88912824D01*
X146031230Y-88627110D02*
X145031230Y-88627110D01*
%TO.C,SW10*%
X80845058Y-41737973D02*
X80702201Y-41785592D01*
X80464106Y-41785592D01*
X80368868Y-41737973D01*
X80321249Y-41690354D01*
X80273630Y-41595116D01*
X80273630Y-41499878D01*
X80321249Y-41404640D01*
X80368868Y-41357021D01*
X80464106Y-41309402D01*
X80654582Y-41261783D01*
X80749820Y-41214164D01*
X80797439Y-41166545D01*
X80845058Y-41071307D01*
X80845058Y-40976069D01*
X80797439Y-40880831D01*
X80749820Y-40833212D01*
X80654582Y-40785592D01*
X80416487Y-40785592D01*
X80273630Y-40833212D01*
X79940296Y-40785592D02*
X79702201Y-41785592D01*
X79511725Y-41071307D01*
X79321249Y-41785592D01*
X79083154Y-40785592D01*
X78178392Y-41785592D02*
X78749820Y-41785592D01*
X78464106Y-41785592D02*
X78464106Y-40785592D01*
X78559344Y-40928450D01*
X78654582Y-41023688D01*
X78749820Y-41071307D01*
X77559344Y-40785592D02*
X77464106Y-40785592D01*
X77368868Y-40833212D01*
X77321249Y-40880831D01*
X77273630Y-40976069D01*
X77226011Y-41166545D01*
X77226011Y-41404640D01*
X77273630Y-41595116D01*
X77321249Y-41690354D01*
X77368868Y-41737973D01*
X77464106Y-41785592D01*
X77559344Y-41785592D01*
X77654582Y-41737973D01*
X77702201Y-41690354D01*
X77749820Y-41595116D01*
X77797439Y-41404640D01*
X77797439Y-41166545D01*
X77749820Y-40976069D01*
X77702201Y-40880831D01*
X77654582Y-40833212D01*
X77559344Y-40785592D01*
%TO.C,BT_V1*%
X144215173Y-51641107D02*
X144215173Y-51834631D01*
X144408696Y-51757221D02*
X144215173Y-51834631D01*
X144021649Y-51757221D01*
X144331287Y-51989450D02*
X144215173Y-51834631D01*
X144099058Y-51989450D01*
X143595896Y-51641107D02*
X143595896Y-51834631D01*
X143789420Y-51757221D02*
X143595896Y-51834631D01*
X143402373Y-51757221D01*
X143712011Y-51989450D02*
X143595896Y-51834631D01*
X143479782Y-51989450D01*
%TO.C,BT_GND1*%
X132531173Y-51641107D02*
X132531173Y-51834631D01*
X132724696Y-51757221D02*
X132531173Y-51834631D01*
X132337649Y-51757221D01*
X132647287Y-51989450D02*
X132531173Y-51834631D01*
X132415058Y-51989450D01*
X131911896Y-51641107D02*
X131911896Y-51834631D01*
X132105420Y-51757221D02*
X131911896Y-51834631D01*
X131718373Y-51757221D01*
X132028011Y-51989450D02*
X131911896Y-51834631D01*
X131795782Y-51989450D01*
%TO.C,SW1*%
X147700572Y-102231824D02*
X147670383Y-102379351D01*
X147551335Y-102585548D01*
X147462477Y-102644217D01*
X147397428Y-102661647D01*
X147291140Y-102655267D01*
X147208661Y-102607648D01*
X147149992Y-102518790D01*
X147132563Y-102453741D01*
X147138942Y-102347453D01*
X147192941Y-102158686D01*
X147199321Y-102052398D01*
X147181891Y-101987349D01*
X147123222Y-101898491D01*
X147040743Y-101850872D01*
X146934455Y-101844492D01*
X146869406Y-101861922D01*
X146780548Y-101920591D01*
X146661500Y-102126787D01*
X146631311Y-102274315D01*
X146423405Y-102539180D02*
X147170383Y-103245377D01*
X146456555Y-103053191D01*
X146979907Y-103575291D01*
X145994834Y-103281488D01*
X146408478Y-104565035D02*
X146694193Y-104070163D01*
X146551335Y-104317599D02*
X145685310Y-103817599D01*
X145856647Y-103806549D01*
X145986745Y-103771689D01*
X146075603Y-103713020D01*
%TO.C,PWR_SW1*%
X141885253Y-50898380D02*
X141885253Y-49898380D01*
X141504300Y-49898380D01*
X141409062Y-49946000D01*
X141361443Y-49993619D01*
X141313824Y-50088857D01*
X141313824Y-50231714D01*
X141361443Y-50326952D01*
X141409062Y-50374571D01*
X141504300Y-50422190D01*
X141885253Y-50422190D01*
X140980491Y-49898380D02*
X140742396Y-50898380D01*
X140551919Y-50184095D01*
X140361443Y-50898380D01*
X140123348Y-49898380D01*
X139170967Y-50898380D02*
X139504300Y-50422190D01*
X139742396Y-50898380D02*
X139742396Y-49898380D01*
X139361443Y-49898380D01*
X139266205Y-49946000D01*
X139218586Y-49993619D01*
X139170967Y-50088857D01*
X139170967Y-50231714D01*
X139218586Y-50326952D01*
X139266205Y-50374571D01*
X139361443Y-50422190D01*
X139742396Y-50422190D01*
X138980491Y-50993619D02*
X138218586Y-50993619D01*
X138028110Y-50850761D02*
X137885253Y-50898380D01*
X137647158Y-50898380D01*
X137551919Y-50850761D01*
X137504300Y-50803142D01*
X137456681Y-50707904D01*
X137456681Y-50612666D01*
X137504300Y-50517428D01*
X137551919Y-50469809D01*
X137647158Y-50422190D01*
X137837634Y-50374571D01*
X137932872Y-50326952D01*
X137980491Y-50279333D01*
X138028110Y-50184095D01*
X138028110Y-50088857D01*
X137980491Y-49993619D01*
X137932872Y-49946000D01*
X137837634Y-49898380D01*
X137599538Y-49898380D01*
X137456681Y-49946000D01*
X137123348Y-49898380D02*
X136885253Y-50898380D01*
X136694777Y-50184095D01*
X136504300Y-50898380D01*
X136266205Y-49898380D01*
X135361443Y-50898380D02*
X135932872Y-50898380D01*
X135647158Y-50898380D02*
X135647158Y-49898380D01*
X135742396Y-50041238D01*
X135837634Y-50136476D01*
X135932872Y-50184095D01*
%TO.C,BT_V1*%
X144905535Y-51435212D02*
X142905535Y-51435212D01*
X144905535Y-49435212D02*
X144905535Y-51435212D01*
X142905535Y-49435212D02*
X144905535Y-49435212D01*
X142905535Y-51435212D02*
X142905535Y-49435212D01*
%TO.C,BT_GND1*%
X133221535Y-51435212D02*
X131221535Y-51435212D01*
X131221535Y-49435212D02*
X133221535Y-49435212D01*
X133221535Y-49435212D02*
X133221535Y-51435212D01*
X131221535Y-51435212D02*
X131221535Y-49435212D01*
D12*
%TO.C,RSW1*%
X146980425Y-84976425D02*
X146980425Y-88276425D01*
X144180425Y-88276425D02*
X144480425Y-88276425D01*
X146980425Y-88276425D02*
X146680425Y-88276425D01*
X144480425Y-84976425D02*
X144180425Y-84976425D01*
X146680425Y-84976425D02*
X146980425Y-84976425D01*
X144180425Y-84976425D02*
X144180425Y-88276425D01*
%TD*%
D13*
%TO.C,U1*%
X146312558Y-52716000D03*
%TD*%
M02*
