%TF.GenerationSoftware,KiCad,Pcbnew,(6.0.2-0)*%
%TF.CreationDate,2022-03-18T21:56:12-05:00*%
%TF.ProjectId,Exkeylibur,45786b65-796c-4696-9275-722e6b696361,rev?*%
%TF.SameCoordinates,Original*%
%TF.FileFunction,Soldermask,Bot*%
%TF.FilePolarity,Negative*%
%FSLAX46Y46*%
G04 Gerber Fmt 4.6, Leading zero omitted, Abs format (unit mm)*
G04 Created by KiCad (PCBNEW (6.0.2-0)) date 2022-03-18 21:56:12*
%MOMM*%
%LPD*%
G01*
G04 APERTURE LIST*
%ADD10C,1.524000*%
%ADD11C,3.429000*%
%ADD12C,0.990600*%
%ADD13C,1.701800*%
%ADD14C,2.032000*%
%ADD15C,1.397000*%
%ADD16C,1.000000*%
%ADD17R,0.900000X1.250000*%
%ADD18R,0.900000X0.900000*%
%ADD19R,1.700000X0.900000*%
G04 APERTURE END LIST*
D10*
%TO.C,U1*%
X131092558Y-52716000D03*
X131092558Y-55256000D03*
X131092558Y-57796000D03*
X131092558Y-60336000D03*
X131092558Y-62876000D03*
X131092558Y-65416000D03*
X131092558Y-67956000D03*
X131092558Y-70496000D03*
X131092558Y-73036000D03*
X131092558Y-75576000D03*
X131092558Y-78116000D03*
X131092558Y-80656000D03*
X146312558Y-80656000D03*
X146312558Y-78116000D03*
X146312558Y-75576000D03*
X146312558Y-73036000D03*
X146312558Y-70496000D03*
X146312558Y-67956000D03*
X146312558Y-65416000D03*
X146312558Y-62876000D03*
X146312558Y-60336000D03*
X146312558Y-57796000D03*
X146312558Y-55256000D03*
X146312558Y-52716000D03*
%TD*%
D11*
%TO.C,SW16*%
X83795535Y-64151212D03*
D12*
X89015535Y-59951212D03*
D13*
X89295535Y-64151212D03*
D12*
X78575535Y-59951212D03*
D13*
X78295535Y-64151212D03*
D14*
X83795535Y-70051212D03*
X88795535Y-67951212D03*
X78795535Y-67951212D03*
%TD*%
%TO.C,SW7*%
X116684308Y-92001812D03*
X126343567Y-94590002D03*
X122057457Y-91267463D03*
D12*
X114401252Y-99672278D03*
D13*
X115217833Y-95542920D03*
X125843017Y-98389930D03*
D11*
X120530425Y-96966425D03*
D12*
X124485518Y-102374349D03*
%TD*%
%TO.C,SW15*%
X71015535Y-66809212D03*
X60575535Y-66809212D03*
D11*
X65795535Y-71009212D03*
D13*
X60295535Y-71009212D03*
X71295535Y-71009212D03*
D14*
X65795535Y-76909212D03*
X70795535Y-74809212D03*
X60795535Y-74809212D03*
%TD*%
D12*
%TO.C,SW13*%
X24440425Y-61916425D03*
D13*
X35160425Y-66116425D03*
D12*
X34880425Y-61916425D03*
D13*
X24160425Y-66116425D03*
D11*
X29660425Y-66116425D03*
D14*
X29660425Y-72016425D03*
X24660425Y-69916425D03*
X34660425Y-69916425D03*
%TD*%
D13*
%TO.C,SW17*%
X96295535Y-69485212D03*
D12*
X96575535Y-65285212D03*
D11*
X101795535Y-69485212D03*
D13*
X107295535Y-69485212D03*
D12*
X107015535Y-65285212D03*
D14*
X101795535Y-75385212D03*
X96795535Y-73285212D03*
X106795535Y-73285212D03*
%TD*%
D11*
%TO.C,SW18*%
X119775535Y-72025212D03*
D12*
X124995535Y-67825212D03*
D13*
X114275535Y-72025212D03*
X125275535Y-72025212D03*
D12*
X114555535Y-67825212D03*
D14*
X119775535Y-77925212D03*
X114775535Y-75825212D03*
X124775535Y-75825212D03*
%TD*%
D11*
%TO.C,SW4*%
X83795535Y-30017212D03*
D12*
X78575535Y-25817212D03*
D13*
X89295535Y-30017212D03*
X78295535Y-30017212D03*
D12*
X89015535Y-25817212D03*
D14*
X83795535Y-35917212D03*
X88795535Y-33817212D03*
X78795535Y-33817212D03*
%TD*%
D12*
%TO.C,SW3*%
X60575535Y-32817212D03*
X71015535Y-32817212D03*
D13*
X71295535Y-37017212D03*
D11*
X65795535Y-37017212D03*
D13*
X60295535Y-37017212D03*
D14*
X65795535Y-42917212D03*
X70795535Y-40817212D03*
X60795535Y-40817212D03*
%TD*%
D11*
%TO.C,SW9*%
X65795535Y-53991212D03*
D12*
X71015535Y-49791212D03*
D13*
X71295535Y-53991212D03*
X60295535Y-53991212D03*
D12*
X60575535Y-49791212D03*
D14*
X65795535Y-59891212D03*
X60795535Y-57791212D03*
X70795535Y-57791212D03*
%TD*%
D11*
%TO.C,SW14*%
X47795535Y-83017212D03*
D13*
X53295535Y-83017212D03*
X42295535Y-83017212D03*
D12*
X42575535Y-78817212D03*
X53015535Y-78817212D03*
D14*
X47795535Y-88917212D03*
X52795535Y-86817212D03*
X42795535Y-86817212D03*
%TD*%
D11*
%TO.C,SW12*%
X119775535Y-55007212D03*
D13*
X125275535Y-55007212D03*
X114275535Y-55007212D03*
D12*
X124995535Y-50807212D03*
X114555535Y-50807212D03*
D14*
X119775535Y-60907212D03*
X124775535Y-58807212D03*
X114775535Y-58807212D03*
%TD*%
D13*
%TO.C,SW11*%
X96295535Y-52467212D03*
D11*
X101795535Y-52467212D03*
D12*
X107015535Y-48267212D03*
X96575535Y-48267212D03*
D13*
X107295535Y-52467212D03*
D14*
X101795535Y-58367212D03*
X96795535Y-56267212D03*
X106795535Y-56267212D03*
%TD*%
D13*
%TO.C,SW8*%
X42295535Y-66017212D03*
D12*
X42575535Y-61817212D03*
D13*
X53295535Y-66017212D03*
D11*
X47795535Y-66017212D03*
D12*
X53015535Y-61817212D03*
D14*
X47795535Y-71917212D03*
X42795535Y-69817212D03*
X52795535Y-69817212D03*
%TD*%
D12*
%TO.C,SW6*%
X125015535Y-33817212D03*
X114575535Y-33817212D03*
D11*
X119795535Y-38017212D03*
D13*
X125295535Y-38017212D03*
X114295535Y-38017212D03*
D14*
X119795535Y-43917212D03*
X124795535Y-41817212D03*
X114795535Y-41817212D03*
%TD*%
D13*
%TO.C,SW5*%
X96295535Y-35517212D03*
D12*
X107015535Y-31317212D03*
X96575535Y-31317212D03*
D13*
X107295535Y-35517212D03*
D11*
X101795535Y-35517212D03*
D14*
X101795535Y-41417212D03*
X96795535Y-39317212D03*
X106795535Y-39317212D03*
%TD*%
D13*
%TO.C,SW2*%
X53295535Y-49017212D03*
D12*
X42575535Y-44817212D03*
D13*
X42295535Y-49017212D03*
D11*
X47795535Y-49017212D03*
D12*
X53015535Y-44817212D03*
D14*
X47795535Y-54917212D03*
X42795535Y-52817212D03*
X52795535Y-52817212D03*
%TD*%
D12*
%TO.C,SW10*%
X89015535Y-42933212D03*
D11*
X83795535Y-47133212D03*
D12*
X78575535Y-42933212D03*
D13*
X78295535Y-47133212D03*
X89295535Y-47133212D03*
D14*
X83795535Y-53033212D03*
X88795535Y-50933212D03*
X78795535Y-50933212D03*
%TD*%
D15*
%TO.C,BT_V1*%
X143905535Y-50435212D03*
%TD*%
%TO.C,BT_GND1*%
X132221535Y-50435212D03*
%TD*%
D16*
%TO.C,PWR_SW1*%
X140150425Y-51448925D03*
X137150425Y-51448925D03*
%TD*%
D13*
%TO.C,SW1*%
X142030425Y-99643285D03*
D12*
X140307732Y-111027078D03*
D13*
X136530425Y-109169565D03*
D12*
X145527732Y-101985772D03*
D11*
X139280425Y-104406425D03*
D14*
X134170875Y-101456425D03*
X138489528Y-98176298D03*
X133489528Y-106836552D03*
%TD*%
D17*
%TO.C,PWR_SW1*%
X140897158Y-53521000D03*
X139397158Y-53521000D03*
X136397158Y-53521000D03*
D18*
X134947158Y-52546000D03*
X142347158Y-50346000D03*
X134947158Y-50346000D03*
X142347158Y-52546000D03*
D16*
X137147158Y-51446000D03*
X140147158Y-51446000D03*
%TD*%
D19*
%TO.C,RSW1*%
X146132000Y-88453692D03*
X146132000Y-84453692D03*
%TD*%
M02*
