%TF.GenerationSoftware,KiCad,Pcbnew,(6.0.2-0)*%
%TF.CreationDate,2022-03-18T21:56:12-05:00*%
%TF.ProjectId,Exkeylibur,45786b65-796c-4696-9275-722e6b696361,rev?*%
%TF.SameCoordinates,Original*%
%TF.FileFunction,Profile,NP*%
%FSLAX46Y46*%
G04 Gerber Fmt 4.6, Leading zero omitted, Abs format (unit mm)*
G04 Created by KiCad (PCBNEW (6.0.2-0)) date 2022-03-18 21:56:12*
%MOMM*%
%LPD*%
G01*
G04 APERTURE LIST*
%TA.AperFunction,Profile*%
%ADD10C,0.050000*%
%TD*%
G04 APERTURE END LIST*
D10*
X151560425Y-100546425D02*
G75*
G03*
X151600425Y-100146425I-1296953J331695D01*
G01*
X127937536Y-47399211D02*
X127937580Y-30074631D01*
X127937537Y-47399211D02*
G75*
G03*
X129972537Y-49330129I2000000J70001D01*
G01*
X129972537Y-49330129D02*
X146483270Y-49322000D01*
X147290424Y-50156425D02*
G75*
G03*
X146483270Y-49322000I-886205J-49642D01*
G01*
X147210425Y-50516425D02*
X151520425Y-100506425D01*
X20880425Y-75136425D02*
X37910425Y-90326425D01*
X37910425Y-90326425D02*
G75*
G03*
X40520425Y-91676425I3144740J2881830D01*
G01*
X127937580Y-30074631D02*
G75*
G03*
X127471526Y-29394101I-729878J2D01*
G01*
X38740425Y-40596425D02*
X21010425Y-57076425D01*
X40520425Y-91656425D02*
X56730425Y-91636425D01*
X56930425Y-28421373D02*
X74610425Y-21486425D01*
X75050425Y-21376425D02*
G75*
G03*
X74610425Y-21486425I16428J-1000714D01*
G01*
X39150425Y-40386425D02*
G75*
G03*
X38750425Y-40586425I53850J-607701D01*
G01*
X57090425Y-28306425D02*
G75*
G03*
X56670425Y-28716425I533193J-966319D01*
G01*
X21010425Y-57076425D02*
G75*
G03*
X20530425Y-58076425I749440J-974931D01*
G01*
X143080425Y-116826425D02*
X151560425Y-100546425D01*
X56730425Y-91636425D02*
X92740425Y-98116425D01*
X92740425Y-98116425D02*
X141920425Y-117066425D01*
X75050425Y-21376425D02*
X92940425Y-21436425D01*
X39150425Y-40386425D02*
G75*
G03*
X56670425Y-28716425I-580778J19858173D01*
G01*
X141920425Y-117066426D02*
G75*
G03*
X143080425Y-116826425I387394J1050928D01*
G01*
X20530425Y-58076425D02*
X20510425Y-74196425D01*
X92940425Y-21436425D02*
X127471526Y-29394101D01*
X20510425Y-74196425D02*
G75*
G03*
X20880425Y-75136425I1199233J-70781D01*
G01*
M02*
