%TF.GenerationSoftware,KiCad,Pcbnew,(6.0.2-0)*%
%TF.CreationDate,2022-03-04T16:04:49-06:00*%
%TF.ProjectId,Exkeylibur,45786b65-796c-4696-9275-722e6b696361,rev?*%
%TF.SameCoordinates,Original*%
%TF.FileFunction,Profile,NP*%
%FSLAX46Y46*%
G04 Gerber Fmt 4.6, Leading zero omitted, Abs format (unit mm)*
G04 Created by KiCad (PCBNEW (6.0.2-0)) date 2022-03-04 16:04:49*
%MOMM*%
%LPD*%
G01*
G04 APERTURE LIST*
%TA.AperFunction,Profile*%
%ADD10C,0.050000*%
%TD*%
G04 APERTURE END LIST*
D10*
X56511526Y-91681637D02*
X106710425Y-91656425D01*
X20550425Y-58076425D02*
X20510425Y-74256425D01*
X20520391Y-74237000D02*
G75*
G03*
X20880425Y-75136425I1139161J-65774D01*
G01*
X21010425Y-57076425D02*
G75*
G03*
X20550425Y-58076425I720441J-937202D01*
G01*
X20880425Y-75136425D02*
X37910425Y-90326425D01*
X127937536Y-47399211D02*
X127937580Y-30074631D01*
X127937537Y-47399211D02*
G75*
G03*
X129972537Y-49330129I2000000J70001D01*
G01*
X146627535Y-50077212D02*
G75*
G03*
X145877535Y-49327212I-750000J0D01*
G01*
X37915350Y-90322257D02*
G75*
G03*
X40561526Y-91671637I2933080J2482553D01*
G01*
X127937580Y-30074631D02*
G75*
G03*
X127471526Y-29394101I-729878J2D01*
G01*
X129972537Y-49330129D02*
X145877535Y-49327212D01*
X146627535Y-58055212D02*
X146627535Y-66183212D01*
X146627535Y-50077212D02*
X146627535Y-58055212D01*
X37930425Y-41026425D02*
X21010425Y-57076425D01*
X146627535Y-66183212D02*
X146627535Y-88291637D01*
X110911526Y-27251637D02*
X110911526Y-29201637D01*
X56261526Y-40271637D02*
G75*
G03*
X56641526Y-39741637I-144397J504756D01*
G01*
X75171526Y-21361373D02*
X92508680Y-21361373D01*
X56511526Y-91681637D02*
X40561526Y-91671637D01*
X75171526Y-21361373D02*
G75*
G03*
X74651526Y-21931637I49037J-566930D01*
G01*
X39101526Y-40281637D02*
G75*
G03*
X37940425Y-41006425I250327J-1693449D01*
G01*
X110911526Y-27251637D02*
G75*
G03*
X110471526Y-26881637I-460869J-101439D01*
G01*
X57111526Y-28371373D02*
G75*
G03*
X56641526Y-28891637I44364J-512506D01*
G01*
X57111526Y-28371373D02*
X74441526Y-28361637D01*
X74441526Y-28361638D02*
G75*
G03*
X74651526Y-28071637I-42225J251612D01*
G01*
X147511526Y-122091637D02*
X157831526Y-111741637D01*
X92951526Y-26671637D02*
G75*
G03*
X93151526Y-26881637I258598J46045D01*
G01*
X146627535Y-88291637D02*
X146627535Y-93371637D01*
X56641526Y-28891637D02*
X56641526Y-39741637D01*
X106710425Y-91656425D02*
X145981526Y-122211637D01*
X39101526Y-40281637D02*
X56241526Y-40271637D01*
X157831526Y-111731637D02*
G75*
G03*
X158451526Y-109281637I-1723736J1739660D01*
G01*
X92951526Y-21751637D02*
X92951526Y-26671637D01*
X74651526Y-21931637D02*
X74651526Y-28071637D01*
X93151526Y-26881637D02*
X110471526Y-26881637D01*
X145981526Y-122211637D02*
G75*
G03*
X147521526Y-122081637I697988J918066D01*
G01*
X110911527Y-29201637D02*
G75*
G03*
X111061526Y-29391637I201105J4557D01*
G01*
X92951526Y-21751637D02*
G75*
G03*
X92508680Y-21361373I-463650J-79731D01*
G01*
X146627535Y-93371637D02*
X158451526Y-109281637D01*
X111061526Y-29394101D02*
X127471526Y-29394101D01*
M02*
