M48
INCH
T1C0.0354
T2C0.0390
T3C0.0670
T4C0.1350
%
G90
G05
T1
X5.3765Y-2.0256
X5.3766Y-2.0258
X5.4946Y-2.0256
X5.4948Y-2.0258
T2
X0.9622Y-2.4377
X1.3732Y-2.4377
X1.6762Y-1.7645
X1.6762Y-2.4337
X1.6762Y-3.103
X2.0872Y-1.7645
X2.0872Y-2.4337
X2.0872Y-3.103
X2.3849Y-1.292
X2.3849Y-1.9603
X2.3849Y-2.6303
X2.7959Y-1.292
X2.7959Y-1.9603
X2.7959Y-2.6303
X3.0935Y-1.0164
X3.0935Y-1.6903
X3.0935Y-2.3603
X3.5045Y-1.0164
X3.5045Y-1.6903
X3.5045Y-2.3603
X3.8022Y-1.233
X3.8022Y-1.9003
X3.8022Y-2.5703
X4.2132Y-1.233
X4.2132Y-1.9003
X4.2132Y-2.5703
X4.5101Y-2.0003
X4.5101Y-2.6703
X4.5108Y-1.3314
X4.8703Y-3.8876
X4.9211Y-2.0003
X4.9211Y-2.6703
X4.9219Y-1.3314
X5.2262Y-4.0931
X5.4952Y-4.3083
X5.7859Y-4.5989
T3
X0.9512Y-2.603
X1.3843Y-2.603
X1.6652Y-1.9298
X1.6652Y-2.5991
X1.6652Y-3.2684
X2.0982Y-1.9298
X2.0982Y-2.5991
X2.0982Y-3.2684
X2.3738Y-1.4574
X2.3738Y-2.1256
X2.3738Y-2.7956
X2.8069Y-1.4574
X2.8069Y-2.1256
X2.8069Y-2.7956
X3.0825Y-1.1818
X3.0825Y-1.8556
X3.0825Y-2.5256
X3.5156Y-1.1818
X3.5156Y-1.8556
X3.5156Y-2.5256
X3.7912Y-1.3983
X3.7912Y-2.0656
X3.7912Y-2.7356
X4.2242Y-1.3983
X4.2242Y-2.0656
X4.2242Y-2.7356
X4.499Y-2.1656
X4.499Y-2.8356
X4.4998Y-1.4967
X4.9321Y-2.1656
X4.9321Y-2.8356
X4.9329Y-1.4967
X4.9434Y-3.7389
X5.3185Y-3.9554
X5.6043Y-4.1836
X5.9106Y-4.4898
T4
X1.1677Y-2.603
X1.8817Y-1.9298
X1.8817Y-2.5991
X1.8817Y-3.2684
X2.5904Y-1.4574
X2.5904Y-2.1256
X2.5904Y-2.7956
X3.299Y-1.1818
X3.299Y-1.8556
X3.299Y-2.5256
X4.0077Y-1.3983
X4.0077Y-2.0656
X4.0077Y-2.7356
X4.7156Y-2.1656
X4.7156Y-2.8356
X4.7164Y-1.4967
X5.1309Y-3.8471
X5.7575Y-4.3367
T0
M30
