M48
INCH
T1C0.0157
T2C0.0320
T3C0.0500
%
G90
G05
T1
X4.9774Y-3.3351
X5.2892Y-2.1115
X5.4373Y-2.0304
T2
X5.1381Y-2.0756
X5.1381Y-2.1756
X5.1381Y-2.2756
X5.1381Y-2.3756
X5.1381Y-2.4756
X5.1381Y-2.5756
X5.1381Y-2.6756
X5.1381Y-2.7756
X5.1381Y-2.8756
X5.1381Y-2.9756
X5.1381Y-3.0756
X5.1381Y-3.1756
X5.2056Y-1.9856
X5.6656Y-1.9856
X5.7374Y-2.0756
X5.7374Y-2.1756
X5.7374Y-2.2756
X5.7374Y-2.3756
X5.7374Y-2.4756
X5.7374Y-2.5756
X5.7374Y-2.6756
X5.7374Y-2.7756
X5.7374Y-2.8756
X5.7374Y-2.9756
X5.7374Y-3.0756
X5.7374Y-3.1756
T3
X0.9709Y-2.7526
X1.1677Y-2.8353
X1.3646Y-2.7526
X1.6849Y-2.0794
X1.6849Y-2.7487
X1.6849Y-3.418
X1.8817Y-2.1621
X1.8817Y-2.8314
X1.8817Y-3.5007
X2.0786Y-2.0794
X2.0786Y-2.7487
X2.0786Y-3.418
X2.3935Y-1.607
X2.3935Y-2.2752
X2.3935Y-2.9452
X2.5904Y-1.6897
X2.5904Y-2.3579
X2.5904Y-3.0279
X2.7872Y-1.607
X2.7872Y-2.2752
X2.7872Y-2.9452
X3.1022Y-1.3314
X3.1022Y-2.0052
X3.1022Y-2.6752
X3.299Y-1.4141
X3.299Y-2.0879
X3.299Y-2.7579
X3.4959Y-1.3314
X3.4959Y-2.0052
X3.4959Y-2.6752
X3.8108Y-1.5479
X3.8108Y-2.2152
X3.8108Y-2.8852
X4.0077Y-1.6306
X4.0077Y-2.2979
X4.0077Y-2.9679
X4.2045Y-1.5479
X4.2045Y-2.2152
X4.2045Y-2.8852
X4.2195Y-3.3438
X4.431Y-3.3149
X4.5187Y-2.3152
X4.5187Y-2.9852
X4.5195Y-1.6463
X4.5997Y-3.4457
X4.7156Y-2.3979
X4.7156Y-3.0679
X4.7164Y-1.729
X4.9124Y-2.3152
X4.9124Y-2.9852
X4.9132Y-1.6463
X5.0197Y-3.6179
X5.2315Y-3.6448
X5.3607Y-3.8148
T0
M30
