%TF.GenerationSoftware,KiCad,Pcbnew,(6.0.2-0)*%
%TF.CreationDate,2022-03-03T20:02:49-06:00*%
%TF.ProjectId,Exkeylibur,45786b65-796c-4696-9275-722e6b696361,rev?*%
%TF.SameCoordinates,Original*%
%TF.FileFunction,Soldermask,Bot*%
%TF.FilePolarity,Negative*%
%FSLAX46Y46*%
G04 Gerber Fmt 4.6, Leading zero omitted, Abs format (unit mm)*
G04 Created by KiCad (PCBNEW (6.0.2-0)) date 2022-03-03 20:02:49*
%MOMM*%
%LPD*%
G01*
G04 APERTURE LIST*
%ADD10C,1.524000*%
%ADD11C,3.429000*%
%ADD12C,0.990600*%
%ADD13C,1.701800*%
%ADD14C,2.032000*%
%ADD15C,1.397000*%
%ADD16C,1.000000*%
%ADD17R,0.900000X0.900000*%
%ADD18R,0.900000X1.250000*%
%ADD19R,0.900000X1.700000*%
G04 APERTURE END LIST*
D10*
%TO.C,U1*%
X128322558Y-53086000D03*
X128322558Y-55626000D03*
X128322558Y-58166000D03*
X128322558Y-60706000D03*
X128322558Y-63246000D03*
X128322558Y-65786000D03*
X128322558Y-68326000D03*
X128322558Y-70866000D03*
X128322558Y-73406000D03*
X128322558Y-75946000D03*
X128322558Y-78486000D03*
X128322558Y-81026000D03*
X113102558Y-81026000D03*
X113102558Y-78486000D03*
X113102558Y-75946000D03*
X113102558Y-73406000D03*
X113102558Y-70866000D03*
X113102558Y-68326000D03*
X113102558Y-65786000D03*
X113102558Y-63246000D03*
X113102558Y-60706000D03*
X113102558Y-58166000D03*
X113102558Y-55626000D03*
X113102558Y-53086000D03*
%TD*%
D11*
%TO.C,SW16*%
X66389158Y-64516000D03*
D12*
X71609158Y-60316000D03*
D13*
X71889158Y-64516000D03*
D12*
X61169158Y-60316000D03*
D13*
X60889158Y-64516000D03*
D14*
X66389158Y-70416000D03*
X71389158Y-68316000D03*
X61389158Y-68316000D03*
%TD*%
D12*
%TO.C,SW7*%
X115339811Y-104329307D03*
D11*
X112919158Y-98082000D03*
D13*
X117682298Y-100832000D03*
X108156018Y-95332000D03*
D12*
X106298505Y-99109307D03*
D14*
X115869158Y-92972450D03*
X119149285Y-97291103D03*
X110489031Y-92291103D03*
%TD*%
D12*
%TO.C,SW15*%
X53609158Y-67174000D03*
X43169158Y-67174000D03*
D11*
X48389158Y-71374000D03*
D13*
X42889158Y-71374000D03*
X53889158Y-71374000D03*
D14*
X48389158Y-77274000D03*
X53389158Y-75174000D03*
X43389158Y-75174000D03*
%TD*%
D12*
%TO.C,SW13*%
X98314251Y-95489924D03*
D13*
X89046566Y-88658495D03*
D12*
X88229985Y-92787853D03*
D13*
X99671750Y-91505505D03*
D11*
X94359158Y-90082000D03*
D14*
X95886190Y-84383038D03*
X100172300Y-87705577D03*
X90513041Y-85117387D03*
%TD*%
D13*
%TO.C,SW17*%
X78889158Y-69850000D03*
D12*
X79169158Y-65650000D03*
D11*
X84389158Y-69850000D03*
D13*
X89889158Y-69850000D03*
D12*
X89609158Y-65650000D03*
D14*
X84389158Y-75750000D03*
X79389158Y-73650000D03*
X89389158Y-73650000D03*
%TD*%
D11*
%TO.C,SW18*%
X102369158Y-72390000D03*
D12*
X107589158Y-68190000D03*
D13*
X96869158Y-72390000D03*
X107869158Y-72390000D03*
D12*
X97149158Y-68190000D03*
D14*
X102369158Y-78290000D03*
X97369158Y-76190000D03*
X107369158Y-76190000D03*
%TD*%
D11*
%TO.C,SW4*%
X66389158Y-30382000D03*
D12*
X61169158Y-26182000D03*
D13*
X71889158Y-30382000D03*
X60889158Y-30382000D03*
D12*
X71609158Y-26182000D03*
D14*
X66389158Y-36282000D03*
X71389158Y-34182000D03*
X61389158Y-34182000D03*
%TD*%
D12*
%TO.C,SW3*%
X43169158Y-33182000D03*
X53609158Y-33182000D03*
D13*
X53889158Y-37382000D03*
D11*
X48389158Y-37382000D03*
D13*
X42889158Y-37382000D03*
D14*
X48389158Y-43282000D03*
X53389158Y-41182000D03*
X43389158Y-41182000D03*
%TD*%
D11*
%TO.C,SW9*%
X48389158Y-54356000D03*
D12*
X53609158Y-50156000D03*
D13*
X53889158Y-54356000D03*
X42889158Y-54356000D03*
D12*
X43169158Y-50156000D03*
D14*
X48389158Y-60256000D03*
X43389158Y-58156000D03*
X53389158Y-58156000D03*
%TD*%
D11*
%TO.C,SW14*%
X30389158Y-83382000D03*
D13*
X35889158Y-83382000D03*
X24889158Y-83382000D03*
D12*
X25169158Y-79182000D03*
X35609158Y-79182000D03*
D14*
X30389158Y-89282000D03*
X35389158Y-87182000D03*
X25389158Y-87182000D03*
%TD*%
D11*
%TO.C,SW12*%
X102369158Y-55372000D03*
D13*
X107869158Y-55372000D03*
X96869158Y-55372000D03*
D12*
X107589158Y-51172000D03*
X97149158Y-51172000D03*
D14*
X102369158Y-61272000D03*
X107369158Y-59172000D03*
X97369158Y-59172000D03*
%TD*%
D13*
%TO.C,SW11*%
X78889158Y-52832000D03*
D11*
X84389158Y-52832000D03*
D12*
X89609158Y-48632000D03*
X79169158Y-48632000D03*
D13*
X89889158Y-52832000D03*
D14*
X84389158Y-58732000D03*
X79389158Y-56632000D03*
X89389158Y-56632000D03*
%TD*%
D13*
%TO.C,SW8*%
X24889158Y-66382000D03*
D12*
X25169158Y-62182000D03*
D13*
X35889158Y-66382000D03*
D11*
X30389158Y-66382000D03*
D12*
X35609158Y-62182000D03*
D14*
X30389158Y-72282000D03*
X25389158Y-70182000D03*
X35389158Y-70182000D03*
%TD*%
D12*
%TO.C,SW6*%
X107609158Y-34182000D03*
X97169158Y-34182000D03*
D11*
X102389158Y-38382000D03*
D13*
X107889158Y-38382000D03*
X96889158Y-38382000D03*
D14*
X102389158Y-44282000D03*
X107389158Y-42182000D03*
X97389158Y-42182000D03*
%TD*%
D13*
%TO.C,SW5*%
X78889158Y-35882000D03*
D12*
X89609158Y-31682000D03*
X79169158Y-31682000D03*
D13*
X89889158Y-35882000D03*
D11*
X84389158Y-35882000D03*
D14*
X84389158Y-41782000D03*
X79389158Y-39682000D03*
X89389158Y-39682000D03*
%TD*%
D13*
%TO.C,SW2*%
X35889158Y-49382000D03*
D12*
X25169158Y-45182000D03*
D13*
X24889158Y-49382000D03*
D11*
X30389158Y-49382000D03*
D12*
X35609158Y-45182000D03*
D14*
X30389158Y-55282000D03*
X25389158Y-53182000D03*
X35389158Y-53182000D03*
%TD*%
D12*
%TO.C,SW10*%
X71609158Y-43298000D03*
D11*
X66389158Y-47498000D03*
D12*
X61169158Y-43298000D03*
D13*
X60889158Y-47498000D03*
X71889158Y-47498000D03*
D14*
X66389158Y-53398000D03*
X71389158Y-51298000D03*
X61389158Y-51298000D03*
%TD*%
D15*
%TO.C,BT_V1*%
X126499158Y-50800000D03*
%TD*%
%TO.C,BT_GND1*%
X114815158Y-50800000D03*
%TD*%
D16*
%TO.C,PWR_SW1*%
X122160425Y-51818925D03*
X119160425Y-51818925D03*
%TD*%
D13*
%TO.C,SW1*%
X132722245Y-114405512D03*
D12*
X122172212Y-109795176D03*
D13*
X124944071Y-106627338D03*
D12*
X129554407Y-117177371D03*
D11*
X128833158Y-110516425D03*
D14*
X133005088Y-106344495D03*
X135055698Y-111364953D03*
X127984630Y-104293885D03*
%TD*%
D16*
%TO.C,PWR_SW1*%
X122157158Y-51816000D03*
X119157158Y-51816000D03*
D17*
X124357158Y-52916000D03*
X116957158Y-50716000D03*
X124357158Y-50716000D03*
X116957158Y-52916000D03*
D18*
X118407158Y-53891000D03*
X121407158Y-53891000D03*
X122907158Y-53891000D03*
%TD*%
D19*
%TO.C,RSW1*%
X107280425Y-83056425D03*
X110680425Y-83056425D03*
%TD*%
M02*
