%TF.GenerationSoftware,KiCad,Pcbnew,(6.0.2-0)*%
%TF.CreationDate,2022-03-03T20:02:48-06:00*%
%TF.ProjectId,Exkeylibur,45786b65-796c-4696-9275-722e6b696361,rev?*%
%TF.SameCoordinates,Original*%
%TF.FileFunction,Legend,Top*%
%TF.FilePolarity,Positive*%
%FSLAX46Y46*%
G04 Gerber Fmt 4.6, Leading zero omitted, Abs format (unit mm)*
G04 Created by KiCad (PCBNEW (6.0.2-0)) date 2022-03-03 20:02:48*
%MOMM*%
%LPD*%
G01*
G04 APERTURE LIST*
%ADD10C,0.300000*%
%ADD11C,0.125000*%
%ADD12C,0.150000*%
%ADD13C,0.120000*%
%ADD14C,1.524000*%
%ADD15C,1.397000*%
G04 APERTURE END LIST*
D10*
X120804015Y-72198857D02*
X120804015Y-72698857D01*
X121589729Y-72698857D02*
X120089729Y-72698857D01*
X120089729Y-71984571D01*
X121589729Y-70770285D02*
X120804015Y-70770285D01*
X120661158Y-70841714D01*
X120589729Y-70984571D01*
X120589729Y-71270285D01*
X120661158Y-71413142D01*
X121518300Y-70770285D02*
X121589729Y-70913142D01*
X121589729Y-71270285D01*
X121518300Y-71413142D01*
X121375443Y-71484571D01*
X121232586Y-71484571D01*
X121089729Y-71413142D01*
X121018300Y-71270285D01*
X121018300Y-70913142D01*
X120946872Y-70770285D01*
X121518300Y-69413142D02*
X121589729Y-69556000D01*
X121589729Y-69841714D01*
X121518300Y-69984571D01*
X121446872Y-70056000D01*
X121304015Y-70127428D01*
X120875443Y-70127428D01*
X120732586Y-70056000D01*
X120661158Y-69984571D01*
X120589729Y-69841714D01*
X120589729Y-69556000D01*
X120661158Y-69413142D01*
X121518300Y-68198857D02*
X121589729Y-68341714D01*
X121589729Y-68627428D01*
X121518300Y-68770285D01*
X121375443Y-68841714D01*
X120804015Y-68841714D01*
X120661158Y-68770285D01*
X120589729Y-68627428D01*
X120589729Y-68341714D01*
X120661158Y-68198857D01*
X120804015Y-68127428D01*
X120946872Y-68127428D01*
X121089729Y-68841714D01*
X121589729Y-65698857D02*
X120089729Y-65698857D01*
X121518300Y-65698857D02*
X121589729Y-65841714D01*
X121589729Y-66127428D01*
X121518300Y-66270285D01*
X121446872Y-66341714D01*
X121304015Y-66413142D01*
X120875443Y-66413142D01*
X120732586Y-66341714D01*
X120661158Y-66270285D01*
X120589729Y-66127428D01*
X120589729Y-65841714D01*
X120661158Y-65698857D01*
X121589729Y-64770285D02*
X121518300Y-64913142D01*
X121446872Y-64984571D01*
X121304015Y-65056000D01*
X120875443Y-65056000D01*
X120732586Y-64984571D01*
X120661158Y-64913142D01*
X120589729Y-64770285D01*
X120589729Y-64556000D01*
X120661158Y-64413142D01*
X120732586Y-64341714D01*
X120875443Y-64270285D01*
X121304015Y-64270285D01*
X121446872Y-64341714D01*
X121518300Y-64413142D01*
X121589729Y-64556000D01*
X121589729Y-64770285D01*
X120589729Y-63770285D02*
X121589729Y-63484571D01*
X120875443Y-63198857D01*
X121589729Y-62913142D01*
X120589729Y-62627428D01*
X120589729Y-62056000D02*
X121589729Y-62056000D01*
X120732586Y-62056000D02*
X120661158Y-61984571D01*
X120589729Y-61841714D01*
X120589729Y-61627428D01*
X120661158Y-61484571D01*
X120804015Y-61413142D01*
X121589729Y-61413142D01*
D11*
%TO.C,U1*%
X114560205Y-55279000D02*
X114512586Y-55243285D01*
X114441158Y-55243285D01*
X114369729Y-55279000D01*
X114322110Y-55350428D01*
X114298300Y-55421857D01*
X114274491Y-55564714D01*
X114274491Y-55671857D01*
X114298300Y-55814714D01*
X114322110Y-55886142D01*
X114369729Y-55957571D01*
X114441158Y-55993285D01*
X114488777Y-55993285D01*
X114560205Y-55957571D01*
X114584015Y-55921857D01*
X114584015Y-55671857D01*
X114488777Y-55671857D01*
X114798300Y-55993285D02*
X114798300Y-55243285D01*
X115084015Y-55993285D01*
X115084015Y-55243285D01*
X115322110Y-55993285D02*
X115322110Y-55243285D01*
X115441158Y-55243285D01*
X115512586Y-55279000D01*
X115560205Y-55350428D01*
X115584015Y-55421857D01*
X115607824Y-55564714D01*
X115607824Y-55671857D01*
X115584015Y-55814714D01*
X115560205Y-55886142D01*
X115512586Y-55957571D01*
X115441158Y-55993285D01*
X115322110Y-55993285D01*
X126190205Y-60389000D02*
X126142586Y-60353285D01*
X126071158Y-60353285D01*
X125999729Y-60389000D01*
X125952110Y-60460428D01*
X125928300Y-60531857D01*
X125904491Y-60674714D01*
X125904491Y-60781857D01*
X125928300Y-60924714D01*
X125952110Y-60996142D01*
X125999729Y-61067571D01*
X126071158Y-61103285D01*
X126118777Y-61103285D01*
X126190205Y-61067571D01*
X126214015Y-61031857D01*
X126214015Y-60781857D01*
X126118777Y-60781857D01*
X126428300Y-61103285D02*
X126428300Y-60353285D01*
X126714015Y-61103285D01*
X126714015Y-60353285D01*
X126952110Y-61103285D02*
X126952110Y-60353285D01*
X127071158Y-60353285D01*
X127142586Y-60389000D01*
X127190205Y-60460428D01*
X127214015Y-60531857D01*
X127237824Y-60674714D01*
X127237824Y-60781857D01*
X127214015Y-60924714D01*
X127190205Y-60996142D01*
X127142586Y-61067571D01*
X127071158Y-61103285D01*
X126952110Y-61103285D01*
D12*
D11*
X126210205Y-57809000D02*
X126162586Y-57773285D01*
X126091158Y-57773285D01*
X126019729Y-57809000D01*
X125972110Y-57880428D01*
X125948300Y-57951857D01*
X125924491Y-58094714D01*
X125924491Y-58201857D01*
X125948300Y-58344714D01*
X125972110Y-58416142D01*
X126019729Y-58487571D01*
X126091158Y-58523285D01*
X126138777Y-58523285D01*
X126210205Y-58487571D01*
X126234015Y-58451857D01*
X126234015Y-58201857D01*
X126138777Y-58201857D01*
X126448300Y-58523285D02*
X126448300Y-57773285D01*
X126734015Y-58523285D01*
X126734015Y-57773285D01*
X126972110Y-58523285D02*
X126972110Y-57773285D01*
X127091158Y-57773285D01*
X127162586Y-57809000D01*
X127210205Y-57880428D01*
X127234015Y-57951857D01*
X127257824Y-58094714D01*
X127257824Y-58201857D01*
X127234015Y-58344714D01*
X127210205Y-58416142D01*
X127162586Y-58487571D01*
X127091158Y-58523285D01*
X126972110Y-58523285D01*
D13*
X118214729Y-48953285D02*
X118214729Y-48203285D01*
X118464729Y-48739000D01*
X118714729Y-48203285D01*
X118714729Y-48953285D01*
X119071872Y-48953285D02*
X119071872Y-48453285D01*
X119071872Y-48203285D02*
X119036158Y-48239000D01*
X119071872Y-48274714D01*
X119107586Y-48239000D01*
X119071872Y-48203285D01*
X119071872Y-48274714D01*
X119750443Y-48917571D02*
X119679015Y-48953285D01*
X119536158Y-48953285D01*
X119464729Y-48917571D01*
X119429015Y-48881857D01*
X119393300Y-48810428D01*
X119393300Y-48596142D01*
X119429015Y-48524714D01*
X119464729Y-48489000D01*
X119536158Y-48453285D01*
X119679015Y-48453285D01*
X119750443Y-48489000D01*
X120071872Y-48953285D02*
X120071872Y-48453285D01*
X120071872Y-48596142D02*
X120107586Y-48524714D01*
X120143300Y-48489000D01*
X120214729Y-48453285D01*
X120286158Y-48453285D01*
X120643300Y-48953285D02*
X120571872Y-48917571D01*
X120536158Y-48881857D01*
X120500443Y-48810428D01*
X120500443Y-48596142D01*
X120536158Y-48524714D01*
X120571872Y-48489000D01*
X120643300Y-48453285D01*
X120750443Y-48453285D01*
X120821872Y-48489000D01*
X120857586Y-48524714D01*
X120893300Y-48596142D01*
X120893300Y-48810428D01*
X120857586Y-48881857D01*
X120821872Y-48917571D01*
X120750443Y-48953285D01*
X120643300Y-48953285D01*
X121214729Y-48203285D02*
X121214729Y-48810428D01*
X121250443Y-48881857D01*
X121286158Y-48917571D01*
X121357586Y-48953285D01*
X121500443Y-48953285D01*
X121571872Y-48917571D01*
X121607586Y-48881857D01*
X121643300Y-48810428D01*
X121643300Y-48203285D01*
X121964729Y-48917571D02*
X122071872Y-48953285D01*
X122250443Y-48953285D01*
X122321872Y-48917571D01*
X122357586Y-48881857D01*
X122393300Y-48810428D01*
X122393300Y-48739000D01*
X122357586Y-48667571D01*
X122321872Y-48631857D01*
X122250443Y-48596142D01*
X122107586Y-48560428D01*
X122036158Y-48524714D01*
X122000443Y-48489000D01*
X121964729Y-48417571D01*
X121964729Y-48346142D01*
X122000443Y-48274714D01*
X122036158Y-48239000D01*
X122107586Y-48203285D01*
X122286158Y-48203285D01*
X122393300Y-48239000D01*
X122964729Y-48560428D02*
X123071872Y-48596142D01*
X123107586Y-48631857D01*
X123143300Y-48703285D01*
X123143300Y-48810428D01*
X123107586Y-48881857D01*
X123071872Y-48917571D01*
X123000443Y-48953285D01*
X122714729Y-48953285D01*
X122714729Y-48203285D01*
X122964729Y-48203285D01*
X123036158Y-48239000D01*
X123071872Y-48274714D01*
X123107586Y-48346142D01*
X123107586Y-48417571D01*
X123071872Y-48489000D01*
X123036158Y-48524714D01*
X122964729Y-48560428D01*
X122714729Y-48560428D01*
D11*
X114719910Y-53425710D02*
X114553244Y-53068567D01*
X114434196Y-53425710D02*
X114434196Y-52675710D01*
X114624672Y-52675710D01*
X114672291Y-52711425D01*
X114696101Y-52747139D01*
X114719910Y-52818567D01*
X114719910Y-52925710D01*
X114696101Y-52997139D01*
X114672291Y-53032853D01*
X114624672Y-53068567D01*
X114434196Y-53068567D01*
X114910387Y-53211425D02*
X115148482Y-53211425D01*
X114862768Y-53425710D02*
X115029434Y-52675710D01*
X115196101Y-53425710D01*
X115315149Y-52675710D02*
X115434196Y-53425710D01*
X115529434Y-52889996D01*
X115624672Y-53425710D01*
X115743720Y-52675710D01*
D12*
%TO.C,BT_V1*%
X125202548Y-52392942D02*
X125318662Y-52431647D01*
X125357367Y-52470352D01*
X125396072Y-52547761D01*
X125396072Y-52663876D01*
X125357367Y-52741285D01*
X125318662Y-52779990D01*
X125241253Y-52818695D01*
X124931615Y-52818695D01*
X124931615Y-52005895D01*
X125202548Y-52005895D01*
X125279958Y-52044600D01*
X125318662Y-52083304D01*
X125357367Y-52160714D01*
X125357367Y-52238123D01*
X125318662Y-52315533D01*
X125279958Y-52354238D01*
X125202548Y-52392942D01*
X124931615Y-52392942D01*
X125628300Y-52005895D02*
X126092758Y-52005895D01*
X125860529Y-52818695D02*
X125860529Y-52005895D01*
X126170167Y-52896104D02*
X126789443Y-52896104D01*
X126866853Y-52005895D02*
X127137786Y-52818695D01*
X127408719Y-52005895D01*
X128105405Y-52818695D02*
X127640948Y-52818695D01*
X127873177Y-52818695D02*
X127873177Y-52005895D01*
X127795767Y-52122009D01*
X127718358Y-52199419D01*
X127640948Y-52238123D01*
%TO.C,BT_GND1*%
X112628338Y-52392942D02*
X112744453Y-52431647D01*
X112783158Y-52470352D01*
X112821862Y-52547761D01*
X112821862Y-52663876D01*
X112783158Y-52741285D01*
X112744453Y-52779990D01*
X112667043Y-52818695D01*
X112357405Y-52818695D01*
X112357405Y-52005895D01*
X112628338Y-52005895D01*
X112705748Y-52044600D01*
X112744453Y-52083304D01*
X112783158Y-52160714D01*
X112783158Y-52238123D01*
X112744453Y-52315533D01*
X112705748Y-52354238D01*
X112628338Y-52392942D01*
X112357405Y-52392942D01*
X113054091Y-52005895D02*
X113518548Y-52005895D01*
X113286319Y-52818695D02*
X113286319Y-52005895D01*
X113595958Y-52896104D02*
X114215234Y-52896104D01*
X114834510Y-52044600D02*
X114757100Y-52005895D01*
X114640986Y-52005895D01*
X114524872Y-52044600D01*
X114447462Y-52122009D01*
X114408758Y-52199419D01*
X114370053Y-52354238D01*
X114370053Y-52470352D01*
X114408758Y-52625171D01*
X114447462Y-52702580D01*
X114524872Y-52779990D01*
X114640986Y-52818695D01*
X114718396Y-52818695D01*
X114834510Y-52779990D01*
X114873215Y-52741285D01*
X114873215Y-52470352D01*
X114718396Y-52470352D01*
X115221558Y-52818695D02*
X115221558Y-52005895D01*
X115686015Y-52818695D01*
X115686015Y-52005895D01*
X116073062Y-52818695D02*
X116073062Y-52005895D01*
X116266586Y-52005895D01*
X116382700Y-52044600D01*
X116460110Y-52122009D01*
X116498815Y-52199419D01*
X116537519Y-52354238D01*
X116537519Y-52470352D01*
X116498815Y-52625171D01*
X116460110Y-52702580D01*
X116382700Y-52779990D01*
X116266586Y-52818695D01*
X116073062Y-52818695D01*
X117311615Y-52818695D02*
X116847158Y-52818695D01*
X117079386Y-52818695D02*
X117079386Y-52005895D01*
X117001977Y-52122009D01*
X116924567Y-52199419D01*
X116847158Y-52238123D01*
%TO.C,PWR_SW1*%
X123898520Y-51271305D02*
X123898520Y-50271305D01*
X123517567Y-50271305D01*
X123422329Y-50318925D01*
X123374710Y-50366544D01*
X123327091Y-50461782D01*
X123327091Y-50604639D01*
X123374710Y-50699877D01*
X123422329Y-50747496D01*
X123517567Y-50795115D01*
X123898520Y-50795115D01*
X122993758Y-50271305D02*
X122755663Y-51271305D01*
X122565186Y-50557020D01*
X122374710Y-51271305D01*
X122136615Y-50271305D01*
X121184234Y-51271305D02*
X121517567Y-50795115D01*
X121755663Y-51271305D02*
X121755663Y-50271305D01*
X121374710Y-50271305D01*
X121279472Y-50318925D01*
X121231853Y-50366544D01*
X121184234Y-50461782D01*
X121184234Y-50604639D01*
X121231853Y-50699877D01*
X121279472Y-50747496D01*
X121374710Y-50795115D01*
X121755663Y-50795115D01*
X120993758Y-51366544D02*
X120231853Y-51366544D01*
X120041377Y-51223686D02*
X119898520Y-51271305D01*
X119660425Y-51271305D01*
X119565186Y-51223686D01*
X119517567Y-51176067D01*
X119469948Y-51080829D01*
X119469948Y-50985591D01*
X119517567Y-50890353D01*
X119565186Y-50842734D01*
X119660425Y-50795115D01*
X119850901Y-50747496D01*
X119946139Y-50699877D01*
X119993758Y-50652258D01*
X120041377Y-50557020D01*
X120041377Y-50461782D01*
X119993758Y-50366544D01*
X119946139Y-50318925D01*
X119850901Y-50271305D01*
X119612805Y-50271305D01*
X119469948Y-50318925D01*
X119136615Y-50271305D02*
X118898520Y-51271305D01*
X118708044Y-50557020D01*
X118517567Y-51271305D01*
X118279472Y-50271305D01*
X117374710Y-51271305D02*
X117946139Y-51271305D01*
X117660425Y-51271305D02*
X117660425Y-50271305D01*
X117755663Y-50414163D01*
X117850901Y-50509401D01*
X117946139Y-50557020D01*
%TO.C,RSW1*%
X107655044Y-83508805D02*
X107321710Y-83032615D01*
X107083615Y-83508805D02*
X107083615Y-82508805D01*
X107464567Y-82508805D01*
X107559805Y-82556425D01*
X107607425Y-82604044D01*
X107655044Y-82699282D01*
X107655044Y-82842139D01*
X107607425Y-82937377D01*
X107559805Y-82984996D01*
X107464567Y-83032615D01*
X107083615Y-83032615D01*
X108083615Y-82984996D02*
X108416948Y-82984996D01*
X108559805Y-83508805D02*
X108083615Y-83508805D01*
X108083615Y-82508805D01*
X108559805Y-82508805D01*
X108940758Y-83461186D02*
X109083615Y-83508805D01*
X109321710Y-83508805D01*
X109416948Y-83461186D01*
X109464567Y-83413567D01*
X109512186Y-83318329D01*
X109512186Y-83223091D01*
X109464567Y-83127853D01*
X109416948Y-83080234D01*
X109321710Y-83032615D01*
X109131234Y-82984996D01*
X109035996Y-82937377D01*
X108988377Y-82889758D01*
X108940758Y-82794520D01*
X108940758Y-82699282D01*
X108988377Y-82604044D01*
X109035996Y-82556425D01*
X109131234Y-82508805D01*
X109369329Y-82508805D01*
X109512186Y-82556425D01*
X109940758Y-82984996D02*
X110274091Y-82984996D01*
X110416948Y-83508805D02*
X109940758Y-83508805D01*
X109940758Y-82508805D01*
X110416948Y-82508805D01*
X110702663Y-82508805D02*
X111274091Y-82508805D01*
X110988377Y-83508805D02*
X110988377Y-82508805D01*
%TO.C,U1*%
X129611158Y-82314000D02*
X128601158Y-82314000D01*
X121211158Y-46714000D02*
X120711158Y-47364000D01*
X111811158Y-82314000D02*
X112811158Y-82314000D01*
X111811158Y-49264000D02*
X112811158Y-49264000D01*
X124461158Y-46364000D02*
X116961158Y-46364000D01*
X120561158Y-47164000D02*
X120861158Y-47164000D01*
X120211158Y-46714000D02*
X121211158Y-46714000D01*
X129611158Y-49264000D02*
X129611158Y-50264000D01*
X124461158Y-47664000D02*
X124461158Y-46364000D01*
X120711158Y-47364000D02*
X120211158Y-46714000D01*
X111811158Y-81264000D02*
X111811158Y-82314000D01*
X116961158Y-47664000D02*
X124461158Y-47664000D01*
X120461158Y-47014000D02*
X120961158Y-47014000D01*
X129611158Y-81314000D02*
X129611158Y-82314000D01*
X129611158Y-49264000D02*
X128661158Y-49264000D01*
X111811158Y-49264000D02*
X111811158Y-50264000D01*
X120361158Y-46864000D02*
X121061158Y-46864000D01*
X116961158Y-46364000D02*
X116961158Y-47664000D01*
D13*
%TO.C,RSW1*%
X107323158Y-81658000D02*
X110623158Y-81658000D01*
X107323158Y-84158000D02*
X107323158Y-84458000D01*
X110623158Y-81658000D02*
X110623158Y-81958000D01*
X110623158Y-84458000D02*
X110623158Y-84158000D01*
X107323158Y-84458000D02*
X110623158Y-84458000D01*
X107323158Y-81958000D02*
X107323158Y-81658000D01*
D12*
%TO.C,BT_V1*%
X127499158Y-49800000D02*
X125499158Y-49800000D01*
X125499158Y-51800000D02*
X127499158Y-51800000D01*
X125499158Y-49800000D02*
X125499158Y-51800000D01*
X127499158Y-51800000D02*
X127499158Y-49800000D01*
%TO.C,BT_GND1*%
X115815158Y-49800000D02*
X113815158Y-49800000D01*
X113815158Y-51800000D02*
X115815158Y-51800000D01*
X115815158Y-51800000D02*
X115815158Y-49800000D01*
X113815158Y-49800000D02*
X113815158Y-51800000D01*
%TD*%
D14*
%TO.C,U1*%
X128322558Y-53086000D03*
X128322558Y-55626000D03*
X128322558Y-58166000D03*
X128322558Y-60706000D03*
X128322558Y-63246000D03*
X128322558Y-65786000D03*
X128322558Y-68326000D03*
X128322558Y-70866000D03*
X128322558Y-73406000D03*
X128322558Y-75946000D03*
X128322558Y-78486000D03*
X128322558Y-81026000D03*
X113102558Y-81026000D03*
X113102558Y-78486000D03*
X113102558Y-75946000D03*
X113102558Y-73406000D03*
X113102558Y-70866000D03*
X113102558Y-68326000D03*
X113102558Y-65786000D03*
X113102558Y-63246000D03*
X113102558Y-60706000D03*
X113102558Y-58166000D03*
X113102558Y-55626000D03*
X113102558Y-53086000D03*
%TD*%
D15*
%TO.C,BT_V1*%
X126499158Y-50800000D03*
%TD*%
%TO.C,BT_GND1*%
X114815158Y-50800000D03*
%TD*%
M02*
