M48
INCH
T1C0.0354
T2C0.0390
T3C0.0670
T4C0.1350
%
G90
G05
T1
X4.6912Y-2.04
X4.6914Y-2.0401
X4.8093Y-2.04
X4.8095Y-2.0401
T2
X0.9909Y-1.7788
X0.9909Y-2.4481
X0.9909Y-3.1174
X1.4019Y-1.7788
X1.4019Y-2.4481
X1.4019Y-3.1174
X1.6996Y-1.3064
X1.6996Y-1.9746
X1.6996Y-2.6446
X2.1106Y-1.3064
X2.1106Y-1.9746
X2.1106Y-2.6446
X2.4082Y-1.0308
X2.4082Y-1.7046
X2.4082Y-2.3746
X2.8193Y-1.0308
X2.8193Y-1.7046
X2.8193Y-2.3746
X3.1169Y-1.2473
X3.1169Y-1.9146
X3.1169Y-2.5846
X3.4736Y-3.6531
X3.5279Y-1.2473
X3.5279Y-1.9146
X3.5279Y-2.5846
X3.8248Y-2.0146
X3.8248Y-2.6846
X3.8256Y-1.3457
X3.8706Y-3.7594
X4.185Y-3.9019
X4.2358Y-2.0146
X4.2358Y-2.6846
X4.2366Y-1.3457
X4.5409Y-4.1075
X4.8099Y-4.3226
X5.1006Y-4.6133
T3
X0.9799Y-1.9442
X0.9799Y-2.6135
X0.9799Y-3.2828
X1.413Y-1.9442
X1.413Y-2.6135
X1.413Y-3.2828
X1.6885Y-1.4717
X1.6885Y-2.14
X1.6885Y-2.81
X2.1216Y-1.4717
X2.1216Y-2.14
X2.1216Y-2.81
X2.3972Y-1.1961
X2.3972Y-1.87
X2.3972Y-2.54
X2.8303Y-1.1961
X2.8303Y-1.87
X2.8303Y-2.54
X3.1059Y-1.4127
X3.1059Y-2.08
X3.1059Y-2.75
X3.5058Y-3.4905
X3.5389Y-1.4127
X3.5389Y-2.08
X3.5389Y-2.75
X3.8137Y-2.18
X3.8137Y-2.85
X3.8145Y-1.5111
X3.9241Y-3.6026
X4.2468Y-2.18
X4.2468Y-2.85
X4.2476Y-1.5111
X4.2581Y-3.7532
X4.6332Y-3.9698
X4.9191Y-4.1979
X5.2253Y-4.5042
T4
X1.1964Y-1.9442
X1.1964Y-2.6135
X1.1964Y-3.2828
X1.9051Y-1.4717
X1.9051Y-2.14
X1.9051Y-2.81
X2.6137Y-1.1961
X2.6137Y-1.87
X2.6137Y-2.54
X3.3224Y-1.4127
X3.3224Y-2.08
X3.3224Y-2.75
X3.7149Y-3.5465
X4.0303Y-2.18
X4.0303Y-2.85
X4.0311Y-1.5111
X4.4456Y-3.8615
X5.0722Y-4.351
T0
M30
