%TF.GenerationSoftware,KiCad,Pcbnew,(6.0.2-0)*%
%TF.CreationDate,2022-03-03T20:02:49-06:00*%
%TF.ProjectId,Exkeylibur,45786b65-796c-4696-9275-722e6b696361,rev?*%
%TF.SameCoordinates,Original*%
%TF.FileFunction,Profile,NP*%
%FSLAX46Y46*%
G04 Gerber Fmt 4.6, Leading zero omitted, Abs format (unit mm)*
G04 Created by KiCad (PCBNEW (6.0.2-0)) date 2022-03-03 20:02:49*
%MOMM*%
%LPD*%
G01*
G04 APERTURE LIST*
%TA.AperFunction,Profile*%
%ADD10C,0.050000*%
%TD*%
G04 APERTURE END LIST*
D10*
X21155149Y-72787425D02*
X21155149Y-89846425D01*
X110531159Y-47763999D02*
X110531203Y-30439419D01*
X110531160Y-47763999D02*
G75*
G03*
X112566160Y-49694917I2000000J70001D01*
G01*
X129221158Y-50442000D02*
G75*
G03*
X128471158Y-49692000I-750000J0D01*
G01*
X21155149Y-89846425D02*
G75*
G03*
X23155149Y-92036425I2161450J-34315D01*
G01*
X110531203Y-30439419D02*
G75*
G03*
X110065149Y-29758889I-729878J2D01*
G01*
X112566160Y-49694917D02*
X128471158Y-49692000D01*
X129221158Y-58420000D02*
X129221158Y-66548000D01*
X129221158Y-50442000D02*
X129221158Y-58420000D01*
X21135144Y-41101425D02*
X21135153Y-53991425D01*
X129221158Y-66548000D02*
X129221158Y-88656425D01*
X21155149Y-53991425D02*
X21155149Y-72787425D01*
X93505149Y-27616425D02*
X93505149Y-29566425D01*
X38855149Y-40636425D02*
G75*
G03*
X39235149Y-40106425I-144397J504756D01*
G01*
X57765149Y-21726161D02*
X75102303Y-21726161D01*
X39105149Y-92046425D02*
X23155149Y-92036425D01*
X57765149Y-21726161D02*
G75*
G03*
X57245149Y-22296425I49037J-566930D01*
G01*
X21695149Y-40646425D02*
G75*
G03*
X21135144Y-41101425I-19384J-548264D01*
G01*
X93505149Y-27616425D02*
G75*
G03*
X93065149Y-27246425I-460869J-101439D01*
G01*
X39705149Y-28736161D02*
G75*
G03*
X39235149Y-29256425I44364J-512506D01*
G01*
X63355149Y-92026425D02*
X100295149Y-102056425D01*
X39705149Y-28736161D02*
X57035149Y-28726425D01*
X57035149Y-28726426D02*
G75*
G03*
X57245149Y-28436425I-42225J251612D01*
G01*
X130105149Y-122456425D02*
X140425149Y-112106425D01*
X75545149Y-27036425D02*
G75*
G03*
X75745149Y-27246425I258598J46045D01*
G01*
X129221158Y-88656425D02*
X129221158Y-93736425D01*
X39105149Y-92046425D02*
X63355149Y-92026425D01*
X39235149Y-29256425D02*
X39235149Y-40106425D01*
X100295149Y-102056425D02*
X128575149Y-122576425D01*
X21695149Y-40646425D02*
X38835149Y-40636425D01*
X140425149Y-112096425D02*
G75*
G03*
X141045149Y-109646425I-1723736J1739660D01*
G01*
X75545149Y-22116425D02*
X75545149Y-27036425D01*
X57245149Y-22296425D02*
X57245149Y-28436425D01*
X75745149Y-27246425D02*
X93065149Y-27246425D01*
X128575149Y-122576425D02*
G75*
G03*
X130115149Y-122446425I697988J918066D01*
G01*
X93505150Y-29566425D02*
G75*
G03*
X93655149Y-29756425I201105J4557D01*
G01*
X75545149Y-22116425D02*
G75*
G03*
X75102303Y-21726161I-463650J-79731D01*
G01*
X129221158Y-93736425D02*
X141045149Y-109646425D01*
X93655149Y-29758889D02*
X110065149Y-29758889D01*
M02*
