M48
INCH
T1C0.0157
T2C0.0320
T3C0.0500
%
G90
G05
T1
X4.2921Y-3.3495
X4.604Y-2.1258
X4.752Y-2.0447
T2
X4.4529Y-2.09
X4.4529Y-2.19
X4.4529Y-2.29
X4.4529Y-2.39
X4.4529Y-2.49
X4.4529Y-2.59
X4.4529Y-2.69
X4.4529Y-2.79
X4.4529Y-2.89
X4.4529Y-2.99
X4.4529Y-3.09
X4.4529Y-3.19
X4.5203Y-2.0
X4.9803Y-2.0
X5.0521Y-2.09
X5.0521Y-2.19
X5.0521Y-2.29
X5.0521Y-2.39
X5.0521Y-2.49
X5.0521Y-2.59
X5.0521Y-2.69
X5.0521Y-2.79
X5.0521Y-2.89
X5.0521Y-2.99
X5.0521Y-3.09
X5.0521Y-3.19
T3
X0.9996Y-2.0938
X0.9996Y-2.7631
X0.9996Y-3.4324
X1.1964Y-2.1765
X1.1964Y-2.8457
X1.1964Y-3.515
X1.3933Y-2.0938
X1.3933Y-2.7631
X1.3933Y-3.4324
X1.7082Y-1.6213
X1.7082Y-2.2896
X1.7082Y-2.9596
X1.9051Y-1.704
X1.9051Y-2.3723
X1.9051Y-3.0423
X2.1019Y-1.6213
X2.1019Y-2.2896
X2.1019Y-2.9596
X2.4169Y-1.3457
X2.4169Y-2.0196
X2.4169Y-2.6896
X2.6137Y-1.4284
X2.6137Y-2.1023
X2.6137Y-2.7723
X2.8106Y-1.3457
X2.8106Y-2.0196
X2.8106Y-2.6896
X3.1256Y-1.5623
X3.1256Y-2.2296
X3.1256Y-2.8996
X3.3224Y-1.645
X3.3224Y-2.3123
X3.3224Y-2.9823
X3.5193Y-1.5623
X3.5193Y-2.2296
X3.5193Y-2.8996
X3.5635Y-3.3511
X3.775Y-3.3222
X3.8334Y-2.3296
X3.8334Y-2.9996
X3.8342Y-1.6607
X3.9438Y-3.453
X4.0303Y-2.4123
X4.0303Y-3.0823
X4.0311Y-1.7434
X4.2271Y-2.3296
X4.2271Y-2.9996
X4.2279Y-1.6607
X4.35Y-3.6335
X4.5618Y-3.6603
X4.6909Y-3.8304
X5.0388Y-4.1061
X5.2364Y-4.1868
X5.3172Y-4.3844
T0
M30
