%TF.GenerationSoftware,KiCad,Pcbnew,(6.0.2-0)*%
%TF.CreationDate,2022-03-04T16:27:52-06:00*%
%TF.ProjectId,Exkeylibur,45786b65-796c-4696-9275-722e6b696361,rev?*%
%TF.SameCoordinates,Original*%
%TF.FileFunction,Soldermask,Top*%
%TF.FilePolarity,Negative*%
%FSLAX46Y46*%
G04 Gerber Fmt 4.6, Leading zero omitted, Abs format (unit mm)*
G04 Created by KiCad (PCBNEW (6.0.2-0)) date 2022-03-04 16:27:52*
%MOMM*%
%LPD*%
G01*
G04 APERTURE LIST*
%ADD10C,0.990600*%
%ADD11C,3.429000*%
%ADD12C,1.701800*%
%ADD13C,2.032000*%
%ADD14C,1.524000*%
%ADD15R,0.900000X1.700000*%
%ADD16C,1.397000*%
%ADD17C,1.000000*%
%ADD18R,0.900000X0.900000*%
%ADD19R,0.900000X1.250000*%
G04 APERTURE END LIST*
D10*
%TO.C,SW7*%
X114975518Y-95304349D03*
D11*
X111020425Y-89896425D03*
D12*
X116333017Y-91319930D03*
X105707833Y-88472920D03*
D10*
X104891252Y-92602278D03*
D13*
X112547457Y-84197463D03*
X116833567Y-87520002D03*
X107174308Y-84931812D03*
%TD*%
D14*
%TO.C,U1*%
X145728935Y-52721212D03*
%TD*%
D11*
%TO.C,SW16*%
X83795535Y-64151212D03*
D10*
X89015535Y-59951212D03*
D12*
X89295535Y-64151212D03*
D10*
X78575535Y-59951212D03*
D12*
X78295535Y-64151212D03*
D13*
X83795535Y-70051212D03*
X88795535Y-67951212D03*
X78795535Y-67951212D03*
%TD*%
D10*
%TO.C,SW1*%
X132351078Y-103933732D03*
D11*
X129930425Y-97686425D03*
D12*
X134693565Y-100436425D03*
X125167285Y-94936425D03*
D10*
X123309772Y-98713732D03*
D13*
X132880425Y-92576875D03*
X136160552Y-96895528D03*
X127500298Y-91895528D03*
%TD*%
D10*
%TO.C,SW15*%
X71015535Y-66809212D03*
X60575535Y-66809212D03*
D11*
X65795535Y-71009212D03*
D12*
X60295535Y-71009212D03*
X71295535Y-71009212D03*
D13*
X65795535Y-76909212D03*
X70795535Y-74809212D03*
X60795535Y-74809212D03*
%TD*%
D10*
%TO.C,SW13*%
X24440425Y-61916425D03*
D12*
X35160425Y-66116425D03*
D10*
X34880425Y-61916425D03*
D12*
X24160425Y-66116425D03*
D11*
X29660425Y-66116425D03*
D13*
X29660425Y-72016425D03*
X24660425Y-69916425D03*
X34660425Y-69916425D03*
%TD*%
D12*
%TO.C,SW17*%
X96295535Y-69485212D03*
D10*
X96575535Y-65285212D03*
D11*
X101795535Y-69485212D03*
D12*
X107295535Y-69485212D03*
D10*
X107015535Y-65285212D03*
D13*
X101795535Y-75385212D03*
X96795535Y-73285212D03*
X106795535Y-73285212D03*
%TD*%
D11*
%TO.C,SW18*%
X119775535Y-72025212D03*
D10*
X124995535Y-67825212D03*
D12*
X114275535Y-72025212D03*
X125275535Y-72025212D03*
D10*
X114555535Y-67825212D03*
D13*
X119775535Y-77925212D03*
X114775535Y-75825212D03*
X124775535Y-75825212D03*
%TD*%
D11*
%TO.C,SW4*%
X83795535Y-30017212D03*
D10*
X78575535Y-25817212D03*
D12*
X89295535Y-30017212D03*
X78295535Y-30017212D03*
D10*
X89015535Y-25817212D03*
D13*
X83795535Y-35917212D03*
X88795535Y-33817212D03*
X78795535Y-33817212D03*
%TD*%
D10*
%TO.C,SW3*%
X60575535Y-32817212D03*
X71015535Y-32817212D03*
D12*
X71295535Y-37017212D03*
D11*
X65795535Y-37017212D03*
D12*
X60295535Y-37017212D03*
D13*
X65795535Y-42917212D03*
X70795535Y-40817212D03*
X60795535Y-40817212D03*
%TD*%
D11*
%TO.C,SW9*%
X65795535Y-53991212D03*
D10*
X71015535Y-49791212D03*
D12*
X71295535Y-53991212D03*
X60295535Y-53991212D03*
D10*
X60575535Y-49791212D03*
D13*
X65795535Y-59891212D03*
X60795535Y-57791212D03*
X70795535Y-57791212D03*
%TD*%
D11*
%TO.C,SW14*%
X47795535Y-83017212D03*
D12*
X53295535Y-83017212D03*
X42295535Y-83017212D03*
D10*
X42575535Y-78817212D03*
X53015535Y-78817212D03*
D13*
X47795535Y-88917212D03*
X52795535Y-86817212D03*
X42795535Y-86817212D03*
%TD*%
D11*
%TO.C,SW12*%
X119775535Y-55007212D03*
D12*
X125275535Y-55007212D03*
X114275535Y-55007212D03*
D10*
X124995535Y-50807212D03*
X114555535Y-50807212D03*
D13*
X119775535Y-60907212D03*
X124775535Y-58807212D03*
X114775535Y-58807212D03*
%TD*%
D12*
%TO.C,SW11*%
X96295535Y-52467212D03*
D11*
X101795535Y-52467212D03*
D10*
X107015535Y-48267212D03*
X96575535Y-48267212D03*
D12*
X107295535Y-52467212D03*
D13*
X101795535Y-58367212D03*
X96795535Y-56267212D03*
X106795535Y-56267212D03*
%TD*%
D12*
%TO.C,SW8*%
X42295535Y-66017212D03*
D10*
X42575535Y-61817212D03*
D12*
X53295535Y-66017212D03*
D11*
X47795535Y-66017212D03*
D10*
X53015535Y-61817212D03*
D13*
X47795535Y-71917212D03*
X42795535Y-69817212D03*
X52795535Y-69817212D03*
%TD*%
D10*
%TO.C,SW6*%
X125015535Y-33817212D03*
X114575535Y-33817212D03*
D11*
X119795535Y-38017212D03*
D12*
X125295535Y-38017212D03*
X114295535Y-38017212D03*
D13*
X119795535Y-43917212D03*
X124795535Y-41817212D03*
X114795535Y-41817212D03*
%TD*%
D12*
%TO.C,SW5*%
X96295535Y-35517212D03*
D10*
X107015535Y-31317212D03*
X96575535Y-31317212D03*
D12*
X107295535Y-35517212D03*
D11*
X101795535Y-35517212D03*
D13*
X101795535Y-41417212D03*
X96795535Y-39317212D03*
X106795535Y-39317212D03*
%TD*%
D12*
%TO.C,SW2*%
X53295535Y-49017212D03*
D10*
X42575535Y-44817212D03*
D12*
X42295535Y-49017212D03*
D11*
X47795535Y-49017212D03*
D10*
X53015535Y-44817212D03*
D13*
X47795535Y-54917212D03*
X42795535Y-52817212D03*
X52795535Y-52817212D03*
%TD*%
D15*
%TO.C,RSW1*%
X124679535Y-82693212D03*
X128079535Y-82693212D03*
%TD*%
D10*
%TO.C,SW10*%
X89015535Y-42933212D03*
D11*
X83795535Y-47133212D03*
D10*
X78575535Y-42933212D03*
D12*
X78295535Y-47133212D03*
X89295535Y-47133212D03*
D13*
X83795535Y-53033212D03*
X88795535Y-50933212D03*
X78795535Y-50933212D03*
%TD*%
D16*
%TO.C,BT_V1*%
X143905535Y-50435212D03*
%TD*%
%TO.C,BT_GND1*%
X132221535Y-50435212D03*
%TD*%
D17*
%TO.C,PWR_SW1*%
X139566802Y-51454137D03*
X136566802Y-51454137D03*
D18*
X141766802Y-52554137D03*
X134366802Y-52554137D03*
X141766802Y-50354137D03*
X134366802Y-50354137D03*
D19*
X140316802Y-53529137D03*
X137316802Y-53529137D03*
X135816802Y-53529137D03*
%TD*%
D17*
%TO.C,PWR_SW1*%
X139563535Y-51451212D03*
X136563535Y-51451212D03*
%TD*%
M02*
