%TF.GenerationSoftware,KiCad,Pcbnew,(6.0.2-0)*%
%TF.CreationDate,2022-03-04T17:43:14-06:00*%
%TF.ProjectId,Exkeylibur,45786b65-796c-4696-9275-722e6b696361,rev?*%
%TF.SameCoordinates,Original*%
%TF.FileFunction,Profile,NP*%
%FSLAX46Y46*%
G04 Gerber Fmt 4.6, Leading zero omitted, Abs format (unit mm)*
G04 Created by KiCad (PCBNEW (6.0.2-0)) date 2022-03-04 17:43:14*
%MOMM*%
%LPD*%
G01*
G04 APERTURE LIST*
%TA.AperFunction,Profile*%
%ADD10C,0.050000*%
%TD*%
G04 APERTURE END LIST*
D10*
X20880425Y-75136425D02*
X37910425Y-90326425D01*
X127937536Y-47399211D02*
X127937580Y-30074631D01*
X127937537Y-47399211D02*
G75*
G03*
X129972537Y-49330129I2000000J70001D01*
G01*
X146627535Y-50077212D02*
G75*
G03*
X145877535Y-49327212I-750000J0D01*
G01*
X37910425Y-90326425D02*
G75*
G03*
X40561526Y-91671637I2949540J2527901D01*
G01*
X127937580Y-30074631D02*
G75*
G03*
X127471526Y-29394101I-729878J2D01*
G01*
X129972537Y-49330129D02*
X145877535Y-49327212D01*
X146627535Y-58055212D02*
X146627535Y-66183212D01*
X146627535Y-50077212D02*
X146627535Y-58055212D01*
X37930425Y-41026425D02*
X21010425Y-57076425D01*
X146627535Y-66183212D02*
X146620425Y-86486425D01*
X110911526Y-27251637D02*
X110911526Y-29201637D01*
X56261526Y-40271637D02*
G75*
G03*
X56641526Y-39741637I-144397J504756D01*
G01*
X75171526Y-21361373D02*
X92508680Y-21361373D01*
X56511526Y-91681637D02*
X40561526Y-91671637D01*
X75171526Y-21361373D02*
G75*
G03*
X74651526Y-21931637I49037J-566930D01*
G01*
X39101526Y-40281637D02*
G75*
G03*
X37940425Y-41006425I250330J-1693454D01*
G01*
X110911526Y-27251637D02*
G75*
G03*
X110471526Y-26881637I-460869J-101439D01*
G01*
X57111526Y-28371373D02*
G75*
G03*
X56641526Y-28891637I44364J-512506D01*
G01*
X57111526Y-28371373D02*
X74441526Y-28361637D01*
X74441526Y-28361638D02*
G75*
G03*
X74651526Y-28071637I-42225J251612D01*
G01*
X21010425Y-57076426D02*
G75*
G03*
X20550425Y-58076425I720438J-937201D01*
G01*
X91040425Y-91676425D02*
X132720425Y-109466425D01*
X133880425Y-109116425D02*
X145670425Y-88756425D01*
X92951526Y-26671637D02*
G75*
G03*
X93151526Y-26881637I258598J46045D01*
G01*
X56510425Y-91681637D02*
X91040425Y-91676425D01*
X56641526Y-28891637D02*
X56641526Y-39741637D01*
X39101526Y-40281637D02*
X56241526Y-40271637D01*
X145670425Y-88756425D02*
G75*
G03*
X146620425Y-86486425I-4886183J3378667D01*
G01*
X92951526Y-21751637D02*
X92951526Y-26671637D01*
X74651526Y-21931637D02*
X74651526Y-28071637D01*
X93151526Y-26881637D02*
X110471526Y-26881637D01*
X132720425Y-109466424D02*
G75*
G03*
X133880425Y-109116425I394327J790373D01*
G01*
X20550425Y-58076425D02*
X20510425Y-74256425D01*
X110911527Y-29201637D02*
G75*
G03*
X111061526Y-29391637I201105J4557D01*
G01*
X20510424Y-74236425D02*
G75*
G03*
X20880425Y-75136425I1195698J-34491D01*
G01*
X92951526Y-21751637D02*
G75*
G03*
X92508680Y-21361373I-463650J-79731D01*
G01*
X111061526Y-29394101D02*
X127471526Y-29394101D01*
M02*
