%TF.GenerationSoftware,KiCad,Pcbnew,(6.0.2-0)*%
%TF.CreationDate,2022-03-04T16:27:52-06:00*%
%TF.ProjectId,Exkeylibur,45786b65-796c-4696-9275-722e6b696361,rev?*%
%TF.SameCoordinates,Original*%
%TF.FileFunction,Legend,Top*%
%TF.FilePolarity,Positive*%
%FSLAX46Y46*%
G04 Gerber Fmt 4.6, Leading zero omitted, Abs format (unit mm)*
G04 Created by KiCad (PCBNEW (6.0.2-0)) date 2022-03-04 16:27:52*
%MOMM*%
%LPD*%
G01*
G04 APERTURE LIST*
%ADD10C,0.300000*%
%ADD11C,0.125000*%
%ADD12C,0.150000*%
%ADD13C,0.120000*%
%ADD14C,1.524000*%
%ADD15C,1.397000*%
G04 APERTURE END LIST*
D10*
X138210392Y-71834069D02*
X138210392Y-72334069D01*
X138996106Y-72334069D02*
X137496106Y-72334069D01*
X137496106Y-71619783D01*
X138996106Y-70405497D02*
X138210392Y-70405497D01*
X138067535Y-70476926D01*
X137996106Y-70619783D01*
X137996106Y-70905497D01*
X138067535Y-71048354D01*
X138924677Y-70405497D02*
X138996106Y-70548354D01*
X138996106Y-70905497D01*
X138924677Y-71048354D01*
X138781820Y-71119783D01*
X138638963Y-71119783D01*
X138496106Y-71048354D01*
X138424677Y-70905497D01*
X138424677Y-70548354D01*
X138353249Y-70405497D01*
X138924677Y-69048354D02*
X138996106Y-69191212D01*
X138996106Y-69476926D01*
X138924677Y-69619783D01*
X138853249Y-69691212D01*
X138710392Y-69762640D01*
X138281820Y-69762640D01*
X138138963Y-69691212D01*
X138067535Y-69619783D01*
X137996106Y-69476926D01*
X137996106Y-69191212D01*
X138067535Y-69048354D01*
X138924677Y-67834069D02*
X138996106Y-67976926D01*
X138996106Y-68262640D01*
X138924677Y-68405497D01*
X138781820Y-68476926D01*
X138210392Y-68476926D01*
X138067535Y-68405497D01*
X137996106Y-68262640D01*
X137996106Y-67976926D01*
X138067535Y-67834069D01*
X138210392Y-67762640D01*
X138353249Y-67762640D01*
X138496106Y-68476926D01*
X138996106Y-65334069D02*
X137496106Y-65334069D01*
X138924677Y-65334069D02*
X138996106Y-65476926D01*
X138996106Y-65762640D01*
X138924677Y-65905497D01*
X138853249Y-65976926D01*
X138710392Y-66048354D01*
X138281820Y-66048354D01*
X138138963Y-65976926D01*
X138067535Y-65905497D01*
X137996106Y-65762640D01*
X137996106Y-65476926D01*
X138067535Y-65334069D01*
X138996106Y-64405497D02*
X138924677Y-64548354D01*
X138853249Y-64619783D01*
X138710392Y-64691212D01*
X138281820Y-64691212D01*
X138138963Y-64619783D01*
X138067535Y-64548354D01*
X137996106Y-64405497D01*
X137996106Y-64191212D01*
X138067535Y-64048354D01*
X138138963Y-63976926D01*
X138281820Y-63905497D01*
X138710392Y-63905497D01*
X138853249Y-63976926D01*
X138924677Y-64048354D01*
X138996106Y-64191212D01*
X138996106Y-64405497D01*
X137996106Y-63405497D02*
X138996106Y-63119783D01*
X138281820Y-62834069D01*
X138996106Y-62548354D01*
X137996106Y-62262640D01*
X137996106Y-61691212D02*
X138996106Y-61691212D01*
X138138963Y-61691212D02*
X138067535Y-61619783D01*
X137996106Y-61476926D01*
X137996106Y-61262640D01*
X138067535Y-61119783D01*
X138210392Y-61048354D01*
X138996106Y-61048354D01*
D11*
%TO.C,U1*%
X131966582Y-54914212D02*
X131918963Y-54878497D01*
X131847535Y-54878497D01*
X131776106Y-54914212D01*
X131728487Y-54985640D01*
X131704677Y-55057069D01*
X131680868Y-55199926D01*
X131680868Y-55307069D01*
X131704677Y-55449926D01*
X131728487Y-55521354D01*
X131776106Y-55592783D01*
X131847535Y-55628497D01*
X131895154Y-55628497D01*
X131966582Y-55592783D01*
X131990392Y-55557069D01*
X131990392Y-55307069D01*
X131895154Y-55307069D01*
X132204677Y-55628497D02*
X132204677Y-54878497D01*
X132490392Y-55628497D01*
X132490392Y-54878497D01*
X132728487Y-55628497D02*
X132728487Y-54878497D01*
X132847535Y-54878497D01*
X132918963Y-54914212D01*
X132966582Y-54985640D01*
X132990392Y-55057069D01*
X133014201Y-55199926D01*
X133014201Y-55307069D01*
X132990392Y-55449926D01*
X132966582Y-55521354D01*
X132918963Y-55592783D01*
X132847535Y-55628497D01*
X132728487Y-55628497D01*
X143596582Y-60024212D02*
X143548963Y-59988497D01*
X143477535Y-59988497D01*
X143406106Y-60024212D01*
X143358487Y-60095640D01*
X143334677Y-60167069D01*
X143310868Y-60309926D01*
X143310868Y-60417069D01*
X143334677Y-60559926D01*
X143358487Y-60631354D01*
X143406106Y-60702783D01*
X143477535Y-60738497D01*
X143525154Y-60738497D01*
X143596582Y-60702783D01*
X143620392Y-60667069D01*
X143620392Y-60417069D01*
X143525154Y-60417069D01*
X143834677Y-60738497D02*
X143834677Y-59988497D01*
X144120392Y-60738497D01*
X144120392Y-59988497D01*
X144358487Y-60738497D02*
X144358487Y-59988497D01*
X144477535Y-59988497D01*
X144548963Y-60024212D01*
X144596582Y-60095640D01*
X144620392Y-60167069D01*
X144644201Y-60309926D01*
X144644201Y-60417069D01*
X144620392Y-60559926D01*
X144596582Y-60631354D01*
X144548963Y-60702783D01*
X144477535Y-60738497D01*
X144358487Y-60738497D01*
D12*
D11*
X143616582Y-57444212D02*
X143568963Y-57408497D01*
X143497535Y-57408497D01*
X143426106Y-57444212D01*
X143378487Y-57515640D01*
X143354677Y-57587069D01*
X143330868Y-57729926D01*
X143330868Y-57837069D01*
X143354677Y-57979926D01*
X143378487Y-58051354D01*
X143426106Y-58122783D01*
X143497535Y-58158497D01*
X143545154Y-58158497D01*
X143616582Y-58122783D01*
X143640392Y-58087069D01*
X143640392Y-57837069D01*
X143545154Y-57837069D01*
X143854677Y-58158497D02*
X143854677Y-57408497D01*
X144140392Y-58158497D01*
X144140392Y-57408497D01*
X144378487Y-58158497D02*
X144378487Y-57408497D01*
X144497535Y-57408497D01*
X144568963Y-57444212D01*
X144616582Y-57515640D01*
X144640392Y-57587069D01*
X144664201Y-57729926D01*
X144664201Y-57837069D01*
X144640392Y-57979926D01*
X144616582Y-58051354D01*
X144568963Y-58122783D01*
X144497535Y-58158497D01*
X144378487Y-58158497D01*
D13*
X135621106Y-48588497D02*
X135621106Y-47838497D01*
X135871106Y-48374212D01*
X136121106Y-47838497D01*
X136121106Y-48588497D01*
X136478249Y-48588497D02*
X136478249Y-48088497D01*
X136478249Y-47838497D02*
X136442535Y-47874212D01*
X136478249Y-47909926D01*
X136513963Y-47874212D01*
X136478249Y-47838497D01*
X136478249Y-47909926D01*
X137156820Y-48552783D02*
X137085392Y-48588497D01*
X136942535Y-48588497D01*
X136871106Y-48552783D01*
X136835392Y-48517069D01*
X136799677Y-48445640D01*
X136799677Y-48231354D01*
X136835392Y-48159926D01*
X136871106Y-48124212D01*
X136942535Y-48088497D01*
X137085392Y-48088497D01*
X137156820Y-48124212D01*
X137478249Y-48588497D02*
X137478249Y-48088497D01*
X137478249Y-48231354D02*
X137513963Y-48159926D01*
X137549677Y-48124212D01*
X137621106Y-48088497D01*
X137692535Y-48088497D01*
X138049677Y-48588497D02*
X137978249Y-48552783D01*
X137942535Y-48517069D01*
X137906820Y-48445640D01*
X137906820Y-48231354D01*
X137942535Y-48159926D01*
X137978249Y-48124212D01*
X138049677Y-48088497D01*
X138156820Y-48088497D01*
X138228249Y-48124212D01*
X138263963Y-48159926D01*
X138299677Y-48231354D01*
X138299677Y-48445640D01*
X138263963Y-48517069D01*
X138228249Y-48552783D01*
X138156820Y-48588497D01*
X138049677Y-48588497D01*
X138621106Y-47838497D02*
X138621106Y-48445640D01*
X138656820Y-48517069D01*
X138692535Y-48552783D01*
X138763963Y-48588497D01*
X138906820Y-48588497D01*
X138978249Y-48552783D01*
X139013963Y-48517069D01*
X139049677Y-48445640D01*
X139049677Y-47838497D01*
X139371106Y-48552783D02*
X139478249Y-48588497D01*
X139656820Y-48588497D01*
X139728249Y-48552783D01*
X139763963Y-48517069D01*
X139799677Y-48445640D01*
X139799677Y-48374212D01*
X139763963Y-48302783D01*
X139728249Y-48267069D01*
X139656820Y-48231354D01*
X139513963Y-48195640D01*
X139442535Y-48159926D01*
X139406820Y-48124212D01*
X139371106Y-48052783D01*
X139371106Y-47981354D01*
X139406820Y-47909926D01*
X139442535Y-47874212D01*
X139513963Y-47838497D01*
X139692535Y-47838497D01*
X139799677Y-47874212D01*
X140371106Y-48195640D02*
X140478249Y-48231354D01*
X140513963Y-48267069D01*
X140549677Y-48338497D01*
X140549677Y-48445640D01*
X140513963Y-48517069D01*
X140478249Y-48552783D01*
X140406820Y-48588497D01*
X140121106Y-48588497D01*
X140121106Y-47838497D01*
X140371106Y-47838497D01*
X140442535Y-47874212D01*
X140478249Y-47909926D01*
X140513963Y-47981354D01*
X140513963Y-48052783D01*
X140478249Y-48124212D01*
X140442535Y-48159926D01*
X140371106Y-48195640D01*
X140121106Y-48195640D01*
D11*
X132126287Y-53060922D02*
X131959621Y-52703779D01*
X131840573Y-53060922D02*
X131840573Y-52310922D01*
X132031049Y-52310922D01*
X132078668Y-52346637D01*
X132102478Y-52382351D01*
X132126287Y-52453779D01*
X132126287Y-52560922D01*
X132102478Y-52632351D01*
X132078668Y-52668065D01*
X132031049Y-52703779D01*
X131840573Y-52703779D01*
X132316764Y-52846637D02*
X132554859Y-52846637D01*
X132269145Y-53060922D02*
X132435811Y-52310922D01*
X132602478Y-53060922D01*
X132721526Y-52310922D02*
X132840573Y-53060922D01*
X132935811Y-52525208D01*
X133031049Y-53060922D01*
X133150097Y-52310922D01*
D12*
%TO.C,BT_V1*%
X142608925Y-52028154D02*
X142725039Y-52066859D01*
X142763744Y-52105564D01*
X142802449Y-52182973D01*
X142802449Y-52299088D01*
X142763744Y-52376497D01*
X142725039Y-52415202D01*
X142647630Y-52453907D01*
X142337992Y-52453907D01*
X142337992Y-51641107D01*
X142608925Y-51641107D01*
X142686335Y-51679812D01*
X142725039Y-51718516D01*
X142763744Y-51795926D01*
X142763744Y-51873335D01*
X142725039Y-51950745D01*
X142686335Y-51989450D01*
X142608925Y-52028154D01*
X142337992Y-52028154D01*
X143034677Y-51641107D02*
X143499135Y-51641107D01*
X143266906Y-52453907D02*
X143266906Y-51641107D01*
X143576544Y-52531316D02*
X144195820Y-52531316D01*
X144273230Y-51641107D02*
X144544163Y-52453907D01*
X144815096Y-51641107D01*
X145511782Y-52453907D02*
X145047325Y-52453907D01*
X145279554Y-52453907D02*
X145279554Y-51641107D01*
X145202144Y-51757221D01*
X145124735Y-51834631D01*
X145047325Y-51873335D01*
%TO.C,BT_GND1*%
X130034715Y-52028154D02*
X130150830Y-52066859D01*
X130189535Y-52105564D01*
X130228239Y-52182973D01*
X130228239Y-52299088D01*
X130189535Y-52376497D01*
X130150830Y-52415202D01*
X130073420Y-52453907D01*
X129763782Y-52453907D01*
X129763782Y-51641107D01*
X130034715Y-51641107D01*
X130112125Y-51679812D01*
X130150830Y-51718516D01*
X130189535Y-51795926D01*
X130189535Y-51873335D01*
X130150830Y-51950745D01*
X130112125Y-51989450D01*
X130034715Y-52028154D01*
X129763782Y-52028154D01*
X130460468Y-51641107D02*
X130924925Y-51641107D01*
X130692696Y-52453907D02*
X130692696Y-51641107D01*
X131002335Y-52531316D02*
X131621611Y-52531316D01*
X132240887Y-51679812D02*
X132163477Y-51641107D01*
X132047363Y-51641107D01*
X131931249Y-51679812D01*
X131853839Y-51757221D01*
X131815135Y-51834631D01*
X131776430Y-51989450D01*
X131776430Y-52105564D01*
X131815135Y-52260383D01*
X131853839Y-52337792D01*
X131931249Y-52415202D01*
X132047363Y-52453907D01*
X132124773Y-52453907D01*
X132240887Y-52415202D01*
X132279592Y-52376497D01*
X132279592Y-52105564D01*
X132124773Y-52105564D01*
X132627935Y-52453907D02*
X132627935Y-51641107D01*
X133092392Y-52453907D01*
X133092392Y-51641107D01*
X133479439Y-52453907D02*
X133479439Y-51641107D01*
X133672963Y-51641107D01*
X133789077Y-51679812D01*
X133866487Y-51757221D01*
X133905192Y-51834631D01*
X133943896Y-51989450D01*
X133943896Y-52105564D01*
X133905192Y-52260383D01*
X133866487Y-52337792D01*
X133789077Y-52415202D01*
X133672963Y-52453907D01*
X133479439Y-52453907D01*
X134717992Y-52453907D02*
X134253535Y-52453907D01*
X134485763Y-52453907D02*
X134485763Y-51641107D01*
X134408354Y-51757221D01*
X134330944Y-51834631D01*
X134253535Y-51873335D01*
%TO.C,PWR_SW1*%
X141304897Y-50906517D02*
X141304897Y-49906517D01*
X140923944Y-49906517D01*
X140828706Y-49954137D01*
X140781087Y-50001756D01*
X140733468Y-50096994D01*
X140733468Y-50239851D01*
X140781087Y-50335089D01*
X140828706Y-50382708D01*
X140923944Y-50430327D01*
X141304897Y-50430327D01*
X140400135Y-49906517D02*
X140162040Y-50906517D01*
X139971563Y-50192232D01*
X139781087Y-50906517D01*
X139542992Y-49906517D01*
X138590611Y-50906517D02*
X138923944Y-50430327D01*
X139162040Y-50906517D02*
X139162040Y-49906517D01*
X138781087Y-49906517D01*
X138685849Y-49954137D01*
X138638230Y-50001756D01*
X138590611Y-50096994D01*
X138590611Y-50239851D01*
X138638230Y-50335089D01*
X138685849Y-50382708D01*
X138781087Y-50430327D01*
X139162040Y-50430327D01*
X138400135Y-51001756D02*
X137638230Y-51001756D01*
X137447754Y-50858898D02*
X137304897Y-50906517D01*
X137066802Y-50906517D01*
X136971563Y-50858898D01*
X136923944Y-50811279D01*
X136876325Y-50716041D01*
X136876325Y-50620803D01*
X136923944Y-50525565D01*
X136971563Y-50477946D01*
X137066802Y-50430327D01*
X137257278Y-50382708D01*
X137352516Y-50335089D01*
X137400135Y-50287470D01*
X137447754Y-50192232D01*
X137447754Y-50096994D01*
X137400135Y-50001756D01*
X137352516Y-49954137D01*
X137257278Y-49906517D01*
X137019182Y-49906517D01*
X136876325Y-49954137D01*
X136542992Y-49906517D02*
X136304897Y-50906517D01*
X136114421Y-50192232D01*
X135923944Y-50906517D01*
X135685849Y-49906517D01*
X134781087Y-50906517D02*
X135352516Y-50906517D01*
X135066802Y-50906517D02*
X135066802Y-49906517D01*
X135162040Y-50049375D01*
X135257278Y-50144613D01*
X135352516Y-50192232D01*
%TO.C,RSW1*%
X125061421Y-83144017D02*
X124728087Y-82667827D01*
X124489992Y-83144017D02*
X124489992Y-82144017D01*
X124870944Y-82144017D01*
X124966182Y-82191637D01*
X125013802Y-82239256D01*
X125061421Y-82334494D01*
X125061421Y-82477351D01*
X125013802Y-82572589D01*
X124966182Y-82620208D01*
X124870944Y-82667827D01*
X124489992Y-82667827D01*
X125489992Y-82620208D02*
X125823325Y-82620208D01*
X125966182Y-83144017D02*
X125489992Y-83144017D01*
X125489992Y-82144017D01*
X125966182Y-82144017D01*
X126347135Y-83096398D02*
X126489992Y-83144017D01*
X126728087Y-83144017D01*
X126823325Y-83096398D01*
X126870944Y-83048779D01*
X126918563Y-82953541D01*
X126918563Y-82858303D01*
X126870944Y-82763065D01*
X126823325Y-82715446D01*
X126728087Y-82667827D01*
X126537611Y-82620208D01*
X126442373Y-82572589D01*
X126394754Y-82524970D01*
X126347135Y-82429732D01*
X126347135Y-82334494D01*
X126394754Y-82239256D01*
X126442373Y-82191637D01*
X126537611Y-82144017D01*
X126775706Y-82144017D01*
X126918563Y-82191637D01*
X127347135Y-82620208D02*
X127680468Y-82620208D01*
X127823325Y-83144017D02*
X127347135Y-83144017D01*
X127347135Y-82144017D01*
X127823325Y-82144017D01*
X128109040Y-82144017D02*
X128680468Y-82144017D01*
X128394754Y-83144017D02*
X128394754Y-82144017D01*
%TO.C,U1*%
X147017535Y-81949212D02*
X146007535Y-81949212D01*
X138617535Y-46349212D02*
X138117535Y-46999212D01*
X129217535Y-81949212D02*
X130217535Y-81949212D01*
X129217535Y-48899212D02*
X130217535Y-48899212D01*
X141867535Y-45999212D02*
X134367535Y-45999212D01*
X137967535Y-46799212D02*
X138267535Y-46799212D01*
X137617535Y-46349212D02*
X138617535Y-46349212D01*
X147017535Y-48899212D02*
X147017535Y-49899212D01*
X141867535Y-47299212D02*
X141867535Y-45999212D01*
X138117535Y-46999212D02*
X137617535Y-46349212D01*
X129217535Y-80899212D02*
X129217535Y-81949212D01*
X134367535Y-47299212D02*
X141867535Y-47299212D01*
X137867535Y-46649212D02*
X138367535Y-46649212D01*
X147017535Y-80949212D02*
X147017535Y-81949212D01*
X147017535Y-48899212D02*
X146067535Y-48899212D01*
X129217535Y-48899212D02*
X129217535Y-49899212D01*
X137767535Y-46499212D02*
X138467535Y-46499212D01*
X134367535Y-45999212D02*
X134367535Y-47299212D01*
D13*
%TO.C,RSW1*%
X124729535Y-81293212D02*
X128029535Y-81293212D01*
X124729535Y-83793212D02*
X124729535Y-84093212D01*
X128029535Y-81293212D02*
X128029535Y-81593212D01*
X128029535Y-84093212D02*
X128029535Y-83793212D01*
X124729535Y-84093212D02*
X128029535Y-84093212D01*
X124729535Y-81593212D02*
X124729535Y-81293212D01*
D12*
%TO.C,BT_V1*%
X144905535Y-49435212D02*
X142905535Y-49435212D01*
X142905535Y-51435212D02*
X144905535Y-51435212D01*
X142905535Y-49435212D02*
X142905535Y-51435212D01*
X144905535Y-51435212D02*
X144905535Y-49435212D01*
%TO.C,BT_GND1*%
X133221535Y-49435212D02*
X131221535Y-49435212D01*
X131221535Y-51435212D02*
X133221535Y-51435212D01*
X133221535Y-51435212D02*
X133221535Y-49435212D01*
X131221535Y-49435212D02*
X131221535Y-51435212D01*
%TD*%
D14*
%TO.C,U1*%
X145728935Y-52721212D03*
X145728935Y-55261212D03*
X145728935Y-57801212D03*
X145728935Y-60341212D03*
X145728935Y-62881212D03*
X145728935Y-65421212D03*
X145728935Y-67961212D03*
X145728935Y-70501212D03*
X145728935Y-73041212D03*
X145728935Y-75581212D03*
X145728935Y-78121212D03*
X145728935Y-80661212D03*
X130508935Y-80661212D03*
X130508935Y-78121212D03*
X130508935Y-75581212D03*
X130508935Y-73041212D03*
X130508935Y-70501212D03*
X130508935Y-67961212D03*
X130508935Y-65421212D03*
X130508935Y-62881212D03*
X130508935Y-60341212D03*
X130508935Y-57801212D03*
X130508935Y-55261212D03*
X130508935Y-52721212D03*
%TD*%
D15*
%TO.C,BT_V1*%
X143905535Y-50435212D03*
%TD*%
%TO.C,BT_GND1*%
X132221535Y-50435212D03*
%TD*%
M02*
